<svg width="41" height="41" viewBox="0 0 41 41" fill="none" xmlns="http://www.w3.org/2000/svg">
<rect x="0.666687" y="0.702332" width="40" height="40" rx="20" fill="#EEF1FF"/>
<path d="M23.8924 28.4946H19.8601V27.4193C19.8601 26.0647 20.3982 24.7655 21.3561 23.8077C22.3139 22.8498 23.613 22.3117 24.9676 22.3117H28.9999V23.387C28.9999 24.7416 28.4618 26.0407 27.5039 26.9986C26.5461 27.9564 25.247 28.4946 23.8924 28.4946ZM21.5133 26.8816H23.8924C24.7262 26.8819 25.5327 26.5841 26.1662 26.0418C26.7997 25.4995 27.2184 24.7486 27.3467 23.9246H24.9676C24.1338 23.9243 23.3273 24.2222 22.6938 24.7645C22.0603 25.3068 21.6416 26.0577 21.5133 26.8816Z" fill="#5D72D8"/>
<path d="M21.473 28.4946H17.4408C16.0862 28.4946 14.7871 27.9564 13.8292 26.9986C12.8714 26.0407 12.3333 24.7416 12.3333 23.387V22.3117H16.3655C17.7201 22.3117 19.0192 22.8498 19.9771 23.8077C20.9349 24.7655 21.473 26.0647 21.473 27.4193V28.4946ZM13.9865 23.9246C14.1148 24.7486 14.5335 25.4995 15.1669 26.0418C15.8004 26.5841 16.6069 26.8819 17.4408 26.8816H19.8198C19.6915 26.0577 19.2728 25.3068 18.6394 24.7645C18.0059 24.2222 17.1994 23.9243 16.3655 23.9246H13.9865Z" fill="#5D72D8"/>
<path d="M21.473 20.4298H19.8601V26.075H21.473V20.4298Z" fill="#5D72D8"/>
<path d="M13.6341 23.1179H16.3653C16.8221 23.1187 17.2758 23.1922 17.7094 23.3357V22.5803H16.3653C15.7237 22.5803 15.1083 22.3254 14.6546 21.8717C14.2009 21.418 13.946 20.8026 13.946 20.1609C13.946 19.5193 14.2009 18.9039 14.6546 18.4502C15.1083 17.9964 15.7237 17.7415 16.3653 17.7415H17.1422L17.2981 17.1367C17.4888 16.3881 17.9234 15.7243 18.5334 15.2502C19.1434 14.7761 19.8939 14.5187 20.6664 14.5187C21.4389 14.5187 22.1895 14.7761 22.7994 15.2502C23.4094 15.7243 23.844 16.3881 24.0347 17.1367L24.1906 17.7415H24.9675C25.6091 17.7415 26.2245 17.9964 26.6782 18.4502C27.1319 18.9039 27.3868 19.5193 27.3868 20.1609C27.3868 20.8026 27.1319 21.418 26.6782 21.8717C26.2245 22.3254 25.6091 22.5803 24.9675 22.5803H23.6234V23.3357C24.057 23.1922 24.5107 23.1187 24.9675 23.1179H27.6987C28.2652 22.5931 28.669 21.9167 28.8623 21.169C29.0555 20.4214 29.03 19.6339 28.7888 18.9003C28.5476 18.1667 28.1008 17.5179 27.5015 17.0308C26.9023 16.5437 26.1757 16.239 25.4083 16.1528C25.0375 15.1966 24.3862 14.3748 23.54 13.7953C22.6937 13.2158 21.692 12.9057 20.6664 12.9057C19.6408 12.9057 18.6391 13.2158 17.7928 13.7953C16.9466 14.3748 16.2953 15.1966 15.9245 16.1528C15.1571 16.239 14.4306 16.5437 13.8313 17.0308C13.232 17.5179 12.7852 18.1667 12.544 18.9003C12.3028 19.6339 12.2773 20.4214 12.4705 21.169C12.6638 21.9167 13.0677 22.5931 13.6341 23.1179Z" fill="#5D72D8"/>
</svg>
