<svg class="w-full h-[10%]" width="360" height="56" viewBox="0 0 360 56" fill="none" xmlns="http://www.w3.org/2000/svg">
    <rect width="360" height="56" fill="#E9EAF0"></rect>
    <path d="M19.25 34.75C24.5856 34.7457 29.898 35.4522 35.047 36.851C35.774 37.049 36.5 36.509 36.5 35.755V34.75M20.75 20.5V21.25C20.75 21.4489 20.671 21.6397 20.5303 21.7803C20.3897 21.921 20.1989 22 20 22H19.25M19.25 22V21.625C19.25 21.004 19.754 20.5 20.375 20.5H37.25M19.25 22V31M37.25 20.5V21.25C37.25 21.664 37.586 22 38 22H38.75M37.25 20.5H37.625C38.246 20.5 38.75 21.004 38.75 21.625V31.375C38.75 31.996 38.246 32.5 37.625 32.5H37.25M19.25 31V31.375C19.25 31.6734 19.3685 31.9595 19.5795 32.1705C19.7905 32.3815 20.0766 32.5 20.375 32.5H20.75M19.25 31H20C20.1989 31 20.3897 31.079 20.5303 31.2197C20.671 31.3603 20.75 31.5511 20.75 31.75V32.5M37.25 32.5V31.75C37.25 31.5511 37.329 31.3603 37.4697 31.2197C37.6103 31.079 37.8011 31 38 31H38.75M37.25 32.5H20.75M32 26.5C32 27.2956 31.6839 28.0587 31.1213 28.6213C30.5587 29.1839 29.7956 29.5 29 29.5C28.2044 29.5 27.4413 29.1839 26.8787 28.6213C26.3161 28.0587 26 27.2956 26 26.5C26 25.7044 26.3161 24.9413 26.8787 24.3787C27.4413 23.8161 28.2044 23.5 29 23.5C29.7956 23.5 30.5587 23.8161 31.1213 24.3787C31.6839 24.9413 32 25.7044 32 26.5ZM35 26.5H35.008V26.508H35V26.5ZM23 26.5H23.008V26.508H23V26.5Z" stroke="#242F66" stroke-width="1.5" stroke-linecap="round" stroke-linejoin="round"></path>
    <path d="M57.0795 18H56.0227C55.9602 17.696 55.8509 17.429 55.6946 17.1989C55.5412 16.9688 55.3537 16.7756 55.1321 16.6193C54.9134 16.4602 54.6705 16.3409 54.4034 16.2614C54.1364 16.1818 53.858 16.142 53.5682 16.142C53.0398 16.142 52.5611 16.2756 52.1321 16.5426C51.706 16.8097 51.3665 17.2031 51.1136 17.723C50.8636 18.2429 50.7386 18.8807 50.7386 19.6364C50.7386 20.392 50.8636 21.0298 51.1136 21.5497C51.3665 22.0696 51.706 22.4631 52.1321 22.7301C52.5611 22.9972 53.0398 23.1307 53.5682 23.1307C53.858 23.1307 54.1364 23.0909 54.4034 23.0114C54.6705 22.9318 54.9134 22.8139 55.1321 22.6577C55.3537 22.4986 55.5412 22.304 55.6946 22.0739C55.8509 21.8409 55.9602 21.5739 56.0227 21.2727H57.0795C57 21.7187 56.8551 22.1179 56.6449 22.4702C56.4347 22.8224 56.1733 23.1222 55.8608 23.3693C55.5483 23.6136 55.1974 23.7997 54.8082 23.9276C54.4219 24.0554 54.0085 24.1193 53.5682 24.1193C52.8239 24.1193 52.1619 23.9375 51.5824 23.5739C51.0028 23.2102 50.5469 22.6932 50.2145 22.0227C49.8821 21.3523 49.7159 20.5568 49.7159 19.6364C49.7159 18.7159 49.8821 17.9205 50.2145 17.25C50.5469 16.5795 51.0028 16.0625 51.5824 15.6989C52.1619 15.3352 52.8239 15.1534 53.5682 15.1534C54.0085 15.1534 54.4219 15.2173 54.8082 15.3452C55.1974 15.473 55.5483 15.6605 55.8608 15.9077C56.1733 16.152 56.4347 16.4503 56.6449 16.8026C56.8551 17.152 57 17.5511 57.0795 18ZM60.5771 24.1534C60.1623 24.1534 59.7859 24.0753 59.4478 23.919C59.1097 23.7599 58.8413 23.5312 58.6424 23.233C58.4435 22.9318 58.3441 22.5682 58.3441 22.142C58.3441 21.767 58.418 21.4631 58.5657 21.2301C58.7134 20.9943 58.9109 20.8097 59.158 20.6761C59.4052 20.5426 59.6779 20.4432 59.9762 20.3778C60.2773 20.3097 60.5799 20.2557 60.8839 20.2159C61.2816 20.1648 61.604 20.1264 61.8512 20.1009C62.1012 20.0724 62.283 20.0256 62.3967 19.9602C62.5131 19.8949 62.5714 19.7812 62.5714 19.6193V19.5852C62.5714 19.1648 62.4563 18.8381 62.2262 18.6051C61.9989 18.3722 61.6538 18.2557 61.1907 18.2557C60.7106 18.2557 60.3342 18.3608 60.0614 18.571C59.7887 18.7812 59.5969 19.0057 59.4862 19.2443L58.5316 18.9034C58.7021 18.5057 58.9293 18.196 59.2134 17.9744C59.5004 17.75 59.8129 17.5937 60.1509 17.5057C60.4918 17.4148 60.8271 17.3693 61.1566 17.3693C61.3668 17.3693 61.6083 17.3949 61.881 17.446C62.1566 17.4943 62.4222 17.5952 62.6779 17.7486C62.9364 17.902 63.1509 18.1335 63.3214 18.4432C63.4918 18.7528 63.5771 19.1676 63.5771 19.6875V24H62.5714V23.1136H62.5202C62.4521 23.2557 62.3384 23.4077 62.1793 23.5696C62.0202 23.7315 61.8086 23.8693 61.5444 23.983C61.2802 24.0966 60.9577 24.1534 60.5771 24.1534ZM60.7305 23.25C61.1282 23.25 61.4634 23.1719 61.7362 23.0156C62.0117 22.8594 62.2191 22.6577 62.3583 22.4105C62.5004 22.1634 62.5714 21.9034 62.5714 21.6307V20.7102C62.5288 20.7614 62.435 20.8082 62.2901 20.8509C62.1481 20.8906 61.9833 20.9261 61.7958 20.9574C61.6112 20.9858 61.4308 21.0114 61.2546 21.0341C61.0813 21.054 60.9407 21.071 60.8327 21.0852C60.5714 21.1193 60.3271 21.1747 60.0998 21.2514C59.8754 21.3253 59.6935 21.4375 59.5543 21.5881C59.418 21.7358 59.3498 21.9375 59.3498 22.1932C59.3498 22.5426 59.479 22.8068 59.7376 22.9858C59.9989 23.1619 60.3299 23.25 60.7305 23.25ZM70.049 18.9205L69.1456 19.1761C69.0888 19.0256 69.005 18.8793 68.8942 18.7372C68.7862 18.5923 68.6385 18.473 68.451 18.3793C68.2635 18.2855 68.0234 18.2386 67.7308 18.2386C67.3303 18.2386 66.9964 18.331 66.7294 18.5156C66.4652 18.6974 66.3331 18.929 66.3331 19.2102C66.3331 19.4602 66.424 19.6577 66.6058 19.8026C66.7876 19.9474 67.0717 20.0682 67.4581 20.1648L68.4297 20.4034C69.0149 20.5455 69.451 20.7628 69.7379 21.0554C70.0249 21.3452 70.1683 21.7187 70.1683 22.1761C70.1683 22.5511 70.0604 22.8864 69.8445 23.1818C69.6314 23.4773 69.3331 23.7102 68.9496 23.8807C68.5661 24.0511 68.12 24.1364 67.6115 24.1364C66.9439 24.1364 66.3913 23.9915 65.9538 23.7017C65.5163 23.4119 65.2393 22.9886 65.1229 22.4318L66.0774 22.1932C66.1683 22.5455 66.3402 22.8097 66.593 22.9858C66.8487 23.1619 67.1825 23.25 67.5945 23.25C68.0632 23.25 68.4354 23.1506 68.7109 22.9517C68.9893 22.75 69.1286 22.5085 69.1286 22.2273C69.1286 22 69.049 21.8097 68.8899 21.6562C68.7308 21.5 68.4865 21.3835 68.157 21.3068L67.0661 21.0511C66.4666 20.9091 66.0263 20.6889 65.745 20.3906C65.4666 20.0895 65.3274 19.7131 65.3274 19.2614C65.3274 18.892 65.4311 18.5653 65.6385 18.2812C65.8487 17.9972 66.1342 17.7741 66.495 17.6122C66.8587 17.4503 67.2706 17.3693 67.7308 17.3693C68.3786 17.3693 68.8871 17.5114 69.2564 17.7955C69.6286 18.0795 69.8928 18.4545 70.049 18.9205ZM72.6879 20.0625V24H71.6822V15.2727H72.6879V18.4773H72.7731C72.9265 18.1392 73.1566 17.8707 73.4634 17.6719C73.7731 17.4702 74.185 17.3693 74.6992 17.3693C75.1452 17.3693 75.5359 17.4588 75.8711 17.6378C76.2063 17.8139 76.4663 18.0852 76.6509 18.4517C76.8384 18.8153 76.9322 19.2784 76.9322 19.8409V24H75.9265V19.9091C75.9265 19.3892 75.7915 18.9872 75.5217 18.7031C75.2546 18.4162 74.8839 18.2727 74.4094 18.2727C74.0799 18.2727 73.7844 18.3423 73.5231 18.4815C73.2646 18.6207 73.06 18.8239 72.9094 19.0909C72.7617 19.358 72.6879 19.6818 72.6879 20.0625ZM84.8061 24.1364C84.2152 24.1364 83.6967 23.9957 83.2507 23.7145C82.8075 23.4332 82.4609 23.0398 82.2109 22.5341C81.9638 22.0284 81.8402 21.4375 81.8402 20.7614C81.8402 20.0795 81.9638 19.4844 82.2109 18.9759C82.4609 18.4673 82.8075 18.0724 83.2507 17.7912C83.6967 17.5099 84.2152 17.3693 84.8061 17.3693C85.397 17.3693 85.9141 17.5099 86.3572 17.7912C86.8033 18.0724 87.1499 18.4673 87.397 18.9759C87.647 19.4844 87.772 20.0795 87.772 20.7614C87.772 21.4375 87.647 22.0284 87.397 22.5341C87.1499 23.0398 86.8033 23.4332 86.3572 23.7145C85.9141 23.9957 85.397 24.1364 84.8061 24.1364ZM84.8061 23.233C85.255 23.233 85.6243 23.1179 85.9141 22.8878C86.2038 22.6577 86.4183 22.3551 86.5575 21.9801C86.6967 21.6051 86.7663 21.1989 86.7663 20.7614C86.7663 20.3239 86.6967 19.9162 86.5575 19.5384C86.4183 19.1605 86.2038 18.8551 85.9141 18.6222C85.6243 18.3892 85.255 18.2727 84.8061 18.2727C84.3572 18.2727 83.9879 18.3892 83.6982 18.6222C83.4084 18.8551 83.1939 19.1605 83.0547 19.5384C82.9155 19.9162 82.8459 20.3239 82.8459 20.7614C82.8459 21.1989 82.9155 21.6051 83.0547 21.9801C83.1939 22.3551 83.4084 22.6577 83.6982 22.8878C83.9879 23.1179 84.3572 23.233 84.8061 23.233ZM90.3129 20.0625V24H89.3072V17.4545H90.2788V18.4773H90.364C90.5174 18.1449 90.7504 17.8778 91.0629 17.6761C91.3754 17.4716 91.7788 17.3693 92.2731 17.3693C92.7163 17.3693 93.104 17.4602 93.4364 17.642C93.7688 17.821 94.0273 18.0938 94.212 18.4602C94.3967 18.8239 94.489 19.2841 94.489 19.8409V24H93.4833V19.9091C93.4833 19.3949 93.3498 18.9943 93.0827 18.7074C92.8157 18.4176 92.4492 18.2727 91.9833 18.2727C91.6623 18.2727 91.3754 18.3423 91.1225 18.4815C90.8725 18.6207 90.6751 18.8239 90.5302 19.0909C90.3853 19.358 90.3129 19.6818 90.3129 20.0625ZM52.75 40H50.0568V31.2727H52.8693C53.7159 31.2727 54.4403 31.4474 55.0426 31.7969C55.6449 32.1435 56.1065 32.642 56.4276 33.2926C56.7486 33.9403 56.9091 34.7159 56.9091 35.6193C56.9091 36.5284 56.7472 37.3111 56.4233 37.9673C56.0994 38.6207 55.6278 39.1236 55.0085 39.4759C54.3892 39.8253 53.6364 40 52.75 40ZM51.1136 39.0625H52.6818C53.4034 39.0625 54.0014 38.9233 54.4759 38.6449C54.9503 38.3665 55.304 37.9702 55.5369 37.456C55.7699 36.9418 55.8864 36.3295 55.8864 35.6193C55.8864 34.9148 55.7713 34.3082 55.5412 33.7997C55.3111 33.2884 54.9673 32.8963 54.5099 32.6236C54.0526 32.348 53.483 32.2102 52.8011 32.2102H51.1136V39.0625ZM61.2898 40.1364C60.6591 40.1364 60.1151 39.9972 59.6577 39.7188C59.2031 39.4375 58.8523 39.0455 58.6051 38.5426C58.3608 38.0369 58.2386 37.4489 58.2386 36.7784C58.2386 36.108 58.3608 35.517 58.6051 35.0057C58.8523 34.4915 59.196 34.0909 59.6364 33.804C60.0795 33.5142 60.5966 33.3693 61.1875 33.3693C61.5284 33.3693 61.8651 33.4261 62.1974 33.5398C62.5298 33.6534 62.8324 33.8381 63.1051 34.0938C63.3778 34.3466 63.5952 34.6818 63.7571 35.0994C63.919 35.517 64 36.0312 64 36.642V37.0682H58.9545V36.1989H62.9773C62.9773 35.8295 62.9034 35.5 62.7557 35.2102C62.6108 34.9205 62.4034 34.6918 62.1335 34.5241C61.8665 34.3565 61.5511 34.2727 61.1875 34.2727C60.7869 34.2727 60.4403 34.3722 60.1477 34.571C59.858 34.767 59.6349 35.0227 59.4787 35.3381C59.3224 35.6534 59.2443 35.9915 59.2443 36.3523V36.9318C59.2443 37.4261 59.3295 37.8452 59.5 38.1889C59.6733 38.5298 59.9134 38.7898 60.2202 38.9688C60.527 39.1449 60.8835 39.233 61.2898 39.233C61.554 39.233 61.7926 39.196 62.0057 39.1222C62.2216 39.0455 62.4077 38.9318 62.5639 38.7812C62.7202 38.6278 62.8409 38.4375 62.9261 38.2102L63.8977 38.483C63.7955 38.8125 63.6236 39.1023 63.3821 39.3523C63.1406 39.5994 62.8423 39.7926 62.4872 39.9318C62.1321 40.0682 61.733 40.1364 61.2898 40.1364ZM66.5355 31.2727V40H65.5298V31.2727H66.5355ZM68.3775 40V33.4545H69.3832V40H68.3775ZM68.8888 32.3636C68.6928 32.3636 68.5238 32.2969 68.3817 32.1634C68.2425 32.0298 68.1729 31.8693 68.1729 31.6818C68.1729 31.4943 68.2425 31.3338 68.3817 31.2003C68.5238 31.0668 68.6928 31 68.8888 31C69.0849 31 69.2525 31.0668 69.3917 31.2003C69.5337 31.3338 69.6048 31.4943 69.6048 31.6818C69.6048 31.8693 69.5337 32.0298 69.3917 32.1634C69.2525 32.2969 69.0849 32.3636 68.8888 32.3636ZM76.5774 33.4545L74.157 40H73.1342L70.7138 33.4545H71.8047L73.6115 38.6705H73.6797L75.4865 33.4545H76.5774ZM80.4148 40.1364C79.7841 40.1364 79.2401 39.9972 78.7827 39.7188C78.3281 39.4375 77.9773 39.0455 77.7301 38.5426C77.4858 38.0369 77.3636 37.4489 77.3636 36.7784C77.3636 36.108 77.4858 35.517 77.7301 35.0057C77.9773 34.4915 78.321 34.0909 78.7614 33.804C79.2045 33.5142 79.7216 33.3693 80.3125 33.3693C80.6534 33.3693 80.9901 33.4261 81.3224 33.5398C81.6548 33.6534 81.9574 33.8381 82.2301 34.0938C82.5028 34.3466 82.7202 34.6818 82.8821 35.0994C83.044 35.517 83.125 36.0312 83.125 36.642V37.0682H78.0795V36.1989H82.1023C82.1023 35.8295 82.0284 35.5 81.8807 35.2102C81.7358 34.9205 81.5284 34.6918 81.2585 34.5241C80.9915 34.3565 80.6761 34.2727 80.3125 34.2727C79.9119 34.2727 79.5653 34.3722 79.2727 34.571C78.983 34.767 78.7599 35.0227 78.6037 35.3381C78.4474 35.6534 78.3693 35.9915 78.3693 36.3523V36.9318C78.3693 37.4261 78.4545 37.8452 78.625 38.1889C78.7983 38.5298 79.0384 38.7898 79.3452 38.9688C79.652 39.1449 80.0085 39.233 80.4148 39.233C80.679 39.233 80.9176 39.196 81.1307 39.1222C81.3466 39.0455 81.5327 38.9318 81.6889 38.7812C81.8452 38.6278 81.9659 38.4375 82.0511 38.2102L83.0227 38.483C82.9205 38.8125 82.7486 39.1023 82.5071 39.3523C82.2656 39.5994 81.9673 39.7926 81.6122 39.9318C81.2571 40.0682 80.858 40.1364 80.4148 40.1364ZM84.6548 40V33.4545H85.6264V34.4432H85.6946C85.8139 34.1193 86.0298 33.8565 86.3423 33.6548C86.6548 33.4531 87.0071 33.3523 87.3991 33.3523C87.473 33.3523 87.5653 33.3537 87.6761 33.3565C87.7869 33.3594 87.8707 33.3636 87.9276 33.3693V34.392C87.8935 34.3835 87.8153 34.3707 87.6932 34.3537C87.5739 34.3338 87.4474 34.3239 87.3139 34.3239C86.9957 34.3239 86.7116 34.3906 86.4616 34.5241C86.2145 34.6548 86.0185 34.8366 85.8736 35.0696C85.7315 35.2997 85.6605 35.5625 85.6605 35.858V40H84.6548ZM89.9666 42.4545C89.7962 42.4545 89.6442 42.4403 89.5107 42.4119C89.3771 42.3864 89.2848 42.3608 89.2337 42.3352L89.4893 41.4489C89.7337 41.5114 89.9496 41.5341 90.1371 41.517C90.3246 41.5 90.4908 41.4162 90.6357 41.2656C90.7834 41.1179 90.9183 40.8778 91.0405 40.5455L91.228 40.0341L88.8075 33.4545H89.8984L91.7053 38.6705H91.7734L93.5803 33.4545H94.6712L91.8928 40.9545C91.7678 41.2926 91.6129 41.5724 91.4283 41.794C91.2436 42.0185 91.0291 42.1847 90.7848 42.2926C90.5433 42.4006 90.2706 42.4545 89.9666 42.4545Z" fill="#242F66"></path>
    <path d="M148.75 34.75C148.75 35.1478 148.592 35.5293 148.311 35.8107C148.029 36.092 147.648 36.25 147.25 36.25C146.852 36.25 146.471 36.092 146.189 35.8107C145.908 35.5293 145.75 35.1478 145.75 34.75M148.75 34.75C148.75 34.3522 148.592 33.9706 148.311 33.6893C148.029 33.408 147.648 33.25 147.25 33.25C146.852 33.25 146.471 33.408 146.189 33.6893C145.908 33.9706 145.75 34.3522 145.75 34.75M148.75 34.75H154.75M145.75 34.75H143.875C143.577 34.75 143.291 34.6315 143.08 34.4205C142.869 34.2095 142.75 33.9234 142.75 33.625V30.25M154.75 34.75H157M154.75 34.75V30.25M142.75 30.25V22.615C142.748 22.3412 142.848 22.0765 143.031 21.8722C143.213 21.6679 143.465 21.5384 143.737 21.509C147.07 21.163 150.43 21.163 153.763 21.509C154.328 21.567 154.75 22.047 154.75 22.615V23.573M142.75 30.25H154.75M160 34.75C160 35.1478 159.842 35.5293 159.561 35.8107C159.279 36.092 158.898 36.25 158.5 36.25C158.102 36.25 157.721 36.092 157.439 35.8107C157.158 35.5293 157 35.1478 157 34.75M160 34.75C160 34.3522 159.842 33.9706 159.561 33.6893C159.279 33.408 158.898 33.25 158.5 33.25C158.102 33.25 157.721 33.408 157.439 33.6893C157.158 33.9706 157 34.3522 157 34.75M160 34.75H161.125C161.746 34.75 162.254 34.246 162.215 33.626C162.014 30.3236 160.902 27.1416 159.002 24.433C158.821 24.1793 158.585 23.97 158.311 23.821C158.037 23.672 157.733 23.5872 157.422 23.573H154.75M154.75 23.573V30.25" stroke="#242F66" stroke-width="1.5" stroke-linecap="round" stroke-linejoin="round"></path>
    <path d="M173.557 24V15.2727H178.79V16.2102H174.614V19.1591H178.398V20.0966H174.614V24H173.557ZM180.393 24V17.4545H181.365V18.4432H181.433C181.552 18.1193 181.768 17.8565 182.081 17.6548C182.393 17.4531 182.745 17.3523 183.137 17.3523C183.211 17.3523 183.304 17.3537 183.414 17.3565C183.525 17.3594 183.609 17.3636 183.666 17.3693V18.392C183.632 18.3835 183.554 18.3707 183.431 18.3537C183.312 18.3338 183.186 18.3239 183.052 18.3239C182.734 18.3239 182.45 18.3906 182.2 18.5241C181.953 18.6548 181.757 18.8366 181.612 19.0696C181.47 19.2997 181.399 19.5625 181.399 19.858V24H180.393ZM187.403 24.1364C186.772 24.1364 186.228 23.9972 185.771 23.7188C185.316 23.4375 184.966 23.0455 184.718 22.5426C184.474 22.0369 184.352 21.4489 184.352 20.7784C184.352 20.108 184.474 19.517 184.718 19.0057C184.966 18.4915 185.309 18.0909 185.75 17.804C186.193 17.5142 186.71 17.3693 187.301 17.3693C187.642 17.3693 187.978 17.4261 188.311 17.5398C188.643 17.6534 188.946 17.8381 189.218 18.0938C189.491 18.3466 189.708 18.6818 189.87 19.0994C190.032 19.517 190.113 20.0312 190.113 20.642V21.0682H185.068V20.1989H189.091C189.091 19.8295 189.017 19.5 188.869 19.2102C188.724 18.9205 188.517 18.6918 188.247 18.5241C187.98 18.3565 187.664 18.2727 187.301 18.2727C186.9 18.2727 186.554 18.3722 186.261 18.571C185.971 18.767 185.748 19.0227 185.592 19.3381C185.436 19.6534 185.358 19.9915 185.358 20.3523V20.9318C185.358 21.4261 185.443 21.8452 185.613 22.1889C185.787 22.5298 186.027 22.7898 186.333 22.9688C186.64 23.1449 186.997 23.233 187.403 23.233C187.667 23.233 187.906 23.196 188.119 23.1222C188.335 23.0455 188.521 22.9318 188.677 22.7812C188.833 22.6278 188.954 22.4375 189.039 22.2102L190.011 22.483C189.909 22.8125 189.737 23.1023 189.495 23.3523C189.254 23.5994 188.956 23.7926 188.6 23.9318C188.245 24.0682 187.846 24.1364 187.403 24.1364ZM194.387 24.1364C193.757 24.1364 193.213 23.9972 192.755 23.7188C192.301 23.4375 191.95 23.0455 191.703 22.5426C191.458 22.0369 191.336 21.4489 191.336 20.7784C191.336 20.108 191.458 19.517 191.703 19.0057C191.95 18.4915 192.294 18.0909 192.734 17.804C193.177 17.5142 193.694 17.3693 194.285 17.3693C194.626 17.3693 194.963 17.4261 195.295 17.5398C195.627 17.6534 195.93 17.8381 196.203 18.0938C196.475 18.3466 196.693 18.6818 196.855 19.0994C197.017 19.517 197.098 20.0312 197.098 20.642V21.0682H192.052V20.1989H196.075C196.075 19.8295 196.001 19.5 195.853 19.2102C195.708 18.9205 195.501 18.6918 195.231 18.5241C194.964 18.3565 194.649 18.2727 194.285 18.2727C193.885 18.2727 193.538 18.3722 193.245 18.571C192.956 18.767 192.733 19.0227 192.576 19.3381C192.42 19.6534 192.342 19.9915 192.342 20.3523V20.9318C192.342 21.4261 192.427 21.8452 192.598 22.1889C192.771 22.5298 193.011 22.7898 193.318 22.9688C193.625 23.1449 193.981 23.233 194.387 23.233C194.652 23.233 194.89 23.196 195.103 23.1222C195.319 23.0455 195.505 22.9318 195.662 22.7812C195.818 22.6278 195.939 22.4375 196.024 22.2102L196.995 22.483C196.893 22.8125 196.721 23.1023 196.48 23.3523C196.238 23.5994 195.94 23.7926 195.585 23.9318C195.23 24.0682 194.831 24.1364 194.387 24.1364ZM178.33 33.4545C178.278 33.0227 178.071 32.6875 177.707 32.4489C177.344 32.2102 176.898 32.0909 176.369 32.0909C175.983 32.0909 175.645 32.1534 175.355 32.2784C175.068 32.4034 174.844 32.5753 174.682 32.794C174.523 33.0128 174.443 33.2614 174.443 33.5398C174.443 33.7727 174.499 33.973 174.609 34.1406C174.723 34.3054 174.868 34.4432 175.044 34.554C175.22 34.6619 175.405 34.7514 175.598 34.8224C175.791 34.8906 175.969 34.946 176.131 34.9886L177.017 35.2273C177.244 35.2869 177.497 35.3693 177.776 35.4744C178.057 35.5795 178.325 35.723 178.581 35.9048C178.839 36.0838 179.053 36.3139 179.22 36.5952C179.388 36.8764 179.472 37.2216 179.472 37.6307C179.472 38.1023 179.348 38.5284 179.101 38.9091C178.857 39.2898 178.499 39.5923 178.027 39.8168C177.558 40.0412 176.989 40.1534 176.318 40.1534C175.693 40.1534 175.152 40.0526 174.695 39.8509C174.24 39.6491 173.882 39.3679 173.621 39.0071C173.362 38.6463 173.216 38.2273 173.182 37.75H174.273C174.301 38.0795 174.412 38.3523 174.605 38.5682C174.801 38.7812 175.048 38.9403 175.347 39.0455C175.648 39.1477 175.972 39.1989 176.318 39.1989C176.722 39.1989 177.084 39.1335 177.405 39.0028C177.726 38.8693 177.98 38.6847 178.168 38.4489C178.355 38.2102 178.449 37.9318 178.449 37.6136C178.449 37.3239 178.368 37.0881 178.206 36.9062C178.044 36.7244 177.831 36.5767 177.567 36.4631C177.303 36.3494 177.017 36.25 176.71 36.1648L175.636 35.858C174.955 35.6619 174.415 35.3821 174.017 35.0185C173.619 34.6548 173.42 34.179 173.42 33.5909C173.42 33.1023 173.553 32.6761 173.817 32.3125C174.084 31.946 174.442 31.6619 174.891 31.4602C175.342 31.2557 175.847 31.1534 176.403 31.1534C176.966 31.1534 177.466 31.2543 177.903 31.456C178.341 31.6548 178.688 31.9276 178.943 32.2741C179.202 32.6207 179.338 33.0142 179.352 33.4545H178.33ZM182.078 36.0625V40H181.073V31.2727H182.078V34.4773H182.164C182.317 34.1392 182.547 33.8707 182.854 33.6719C183.164 33.4702 183.576 33.3693 184.09 33.3693C184.536 33.3693 184.926 33.4588 185.262 33.6378C185.597 33.8139 185.857 34.0852 186.042 34.4517C186.229 34.8153 186.323 35.2784 186.323 35.8409V40H185.317V35.9091C185.317 35.3892 185.182 34.9872 184.912 34.7031C184.645 34.4162 184.275 34.2727 183.8 34.2727C183.471 34.2727 183.175 34.3423 182.914 34.4815C182.655 34.6207 182.451 34.8239 182.3 35.0909C182.152 35.358 182.078 35.6818 182.078 36.0625ZM188.163 40V33.4545H189.168V40H188.163ZM188.674 32.3636C188.478 32.3636 188.309 32.2969 188.167 32.1634C188.028 32.0298 187.958 31.8693 187.958 31.6818C187.958 31.4943 188.028 31.3338 188.167 31.2003C188.309 31.0668 188.478 31 188.674 31C188.87 31 189.038 31.0668 189.177 31.2003C189.319 31.3338 189.39 31.4943 189.39 31.6818C189.39 31.8693 189.319 32.0298 189.177 32.1634C189.038 32.2969 188.87 32.3636 188.674 32.3636ZM191.01 42.4545V33.4545H191.982V34.4943H192.101C192.175 34.3807 192.277 34.2358 192.408 34.0597C192.542 33.8807 192.732 33.7216 192.979 33.5824C193.229 33.4403 193.567 33.3693 193.993 33.3693C194.544 33.3693 195.03 33.5071 195.451 33.7827C195.871 34.0582 196.199 34.4489 196.435 34.9545C196.671 35.4602 196.789 36.0568 196.789 36.7443C196.789 37.4375 196.671 38.0384 196.435 38.5469C196.199 39.0526 195.873 39.4446 195.455 39.723C195.037 39.9986 194.556 40.1364 194.01 40.1364C193.59 40.1364 193.253 40.0668 193 39.9276C192.748 39.7855 192.553 39.625 192.417 39.446C192.28 39.2642 192.175 39.1136 192.101 38.9943H192.016V42.4545H191.01ZM191.999 36.7273C191.999 37.2216 192.071 37.6577 192.216 38.0355C192.361 38.4105 192.573 38.7045 192.851 38.9176C193.13 39.1278 193.471 39.233 193.874 39.233C194.294 39.233 194.645 39.1222 194.926 38.9006C195.211 38.6761 195.424 38.375 195.566 37.9972C195.711 37.6165 195.783 37.1932 195.783 36.7273C195.783 36.267 195.712 35.8523 195.57 35.483C195.431 35.1108 195.219 34.8168 194.935 34.6009C194.654 34.3821 194.3 34.2727 193.874 34.2727C193.465 34.2727 193.121 34.3764 192.843 34.5838C192.564 34.7884 192.354 35.0753 192.212 35.4446C192.07 35.8111 191.999 36.2386 191.999 36.7273ZM198.323 42.4545V33.4545H199.294V34.4943H199.414C199.488 34.3807 199.59 34.2358 199.721 34.0597C199.854 33.8807 200.044 33.7216 200.292 33.5824C200.542 33.4403 200.88 33.3693 201.306 33.3693C201.857 33.3693 202.343 33.5071 202.763 33.7827C203.184 34.0582 203.512 34.4489 203.748 34.9545C203.983 35.4602 204.101 36.0568 204.101 36.7443C204.101 37.4375 203.983 38.0384 203.748 38.5469C203.512 39.0526 203.185 39.4446 202.767 39.723C202.35 39.9986 201.868 40.1364 201.323 40.1364C200.902 40.1364 200.566 40.0668 200.313 39.9276C200.06 39.7855 199.865 39.625 199.729 39.446C199.593 39.2642 199.488 39.1136 199.414 38.9943H199.328V42.4545H198.323ZM199.311 36.7273C199.311 37.2216 199.384 37.6577 199.529 38.0355C199.674 38.4105 199.885 38.7045 200.164 38.9176C200.442 39.1278 200.783 39.233 201.186 39.233C201.607 39.233 201.958 39.1222 202.239 38.9006C202.523 38.6761 202.736 38.375 202.878 37.9972C203.023 37.6165 203.096 37.1932 203.096 36.7273C203.096 36.267 203.025 35.8523 202.882 35.483C202.743 35.1108 202.532 34.8168 202.248 34.6009C201.966 34.3821 201.613 34.2727 201.186 34.2727C200.777 34.2727 200.434 34.3764 200.155 34.5838C199.877 34.7884 199.667 35.0753 199.525 35.4446C199.382 35.8111 199.311 36.2386 199.311 36.7273ZM205.635 40V33.4545H206.641V40H205.635ZM206.147 32.3636C205.951 32.3636 205.782 32.2969 205.64 32.1634C205.5 32.0298 205.431 31.8693 205.431 31.6818C205.431 31.4943 205.5 31.3338 205.64 31.2003C205.782 31.0668 205.951 31 206.147 31C206.343 31 206.51 31.0668 206.65 31.2003C206.792 31.3338 206.863 31.4943 206.863 31.6818C206.863 31.8693 206.792 32.0298 206.65 32.1634C206.51 32.2969 206.343 32.3636 206.147 32.3636ZM209.489 36.0625V40H208.483V33.4545H209.455V34.4773H209.54C209.693 34.1449 209.926 33.8778 210.239 33.6761C210.551 33.4716 210.955 33.3693 211.449 33.3693C211.892 33.3693 212.28 33.4602 212.612 33.642C212.945 33.821 213.203 34.0938 213.388 34.4602C213.572 34.8239 213.665 35.2841 213.665 35.8409V40H212.659V35.9091C212.659 35.3949 212.526 34.9943 212.259 34.7074C211.991 34.4176 211.625 34.2727 211.159 34.2727C210.838 34.2727 210.551 34.3423 210.298 34.4815C210.048 34.6207 209.851 34.8239 209.706 35.0909C209.561 35.358 209.489 35.6818 209.489 36.0625ZM218.145 42.5909C217.659 42.5909 217.241 42.5284 216.892 42.4034C216.542 42.2812 216.251 42.1193 216.018 41.9176C215.788 41.7188 215.605 41.5057 215.468 41.2784L216.27 40.7159C216.36 40.8352 216.475 40.9716 216.615 41.125C216.754 41.2812 216.944 41.4162 217.186 41.5298C217.43 41.6463 217.75 41.7045 218.145 41.7045C218.673 41.7045 219.109 41.5767 219.453 41.321C219.797 41.0653 219.968 40.6648 219.968 40.1193V38.7898H219.883C219.809 38.9091 219.704 39.0568 219.568 39.233C219.434 39.4062 219.241 39.5611 218.988 39.6974C218.738 39.831 218.4 39.8977 217.974 39.8977C217.446 39.8977 216.971 39.7727 216.551 39.5227C216.133 39.2727 215.802 38.9091 215.558 38.4318C215.316 37.9545 215.196 37.375 215.196 36.6932C215.196 36.0227 215.314 35.4389 215.549 34.9418C215.785 34.4418 216.113 34.0554 216.534 33.7827C216.954 33.5071 217.44 33.3693 217.991 33.3693C218.417 33.3693 218.755 33.4403 219.005 33.5824C219.258 33.7216 219.451 33.8807 219.585 34.0597C219.721 34.2358 219.826 34.3807 219.9 34.4943H220.002V33.4545H220.974V40.1875C220.974 40.75 220.846 41.2074 220.591 41.5597C220.338 41.9148 219.997 42.1747 219.568 42.3395C219.142 42.5071 218.667 42.5909 218.145 42.5909ZM218.11 38.9943C218.514 38.9943 218.855 38.902 219.133 38.7173C219.412 38.5327 219.623 38.267 219.768 37.9205C219.913 37.5739 219.985 37.1591 219.985 36.6761C219.985 36.2045 219.914 35.7884 219.772 35.4276C219.63 35.0668 219.42 34.7841 219.142 34.5795C218.863 34.375 218.52 34.2727 218.11 34.2727C217.684 34.2727 217.329 34.3807 217.045 34.5966C216.764 34.8125 216.552 35.1023 216.41 35.4659C216.271 35.8295 216.201 36.233 216.201 36.6761C216.201 37.1307 216.272 37.5327 216.414 37.8821C216.559 38.2287 216.772 38.5014 217.054 38.7003C217.338 38.8963 217.69 38.9943 218.11 38.9943Z" fill="#242F66"></path>
    <path d="M275.25 25.7501H280.125C280.821 25.7501 281.489 26.0266 281.981 26.5189C282.473 27.0112 282.75 27.6789 282.75 28.3751C282.75 29.0713 282.473 29.7389 281.981 30.2312C281.489 30.7235 280.821 31.0001 280.125 31.0001H279M275.25 25.7501L277.5 23.5001M275.25 25.7501L277.5 28.0001M286.5 20.7571V37.7501L282.75 36.2501L279 37.7501L275.25 36.2501L271.5 37.7501V20.7571C271.5 19.6491 272.306 18.7001 273.407 18.5721C277.123 18.1407 280.877 18.1407 284.593 18.5721C285.693 18.7001 286.5 19.6491 286.5 20.7571Z" stroke="#242F66" stroke-width="1.5" stroke-linecap="round" stroke-linejoin="round"></path>
    <path d="M300.057 24V15.2727H305.324V16.2102H301.114V19.1591H305.051V20.0966H301.114V23.0625H305.392V24H300.057ZM309.018 24.1534C308.604 24.1534 308.227 24.0753 307.889 23.919C307.551 23.7599 307.283 23.5312 307.084 23.233C306.885 22.9318 306.786 22.5682 306.786 22.142C306.786 21.767 306.859 21.4631 307.007 21.2301C307.155 20.9943 307.352 20.8097 307.599 20.6761C307.847 20.5426 308.119 20.4432 308.418 20.3778C308.719 20.3097 309.021 20.2557 309.325 20.2159C309.723 20.1648 310.045 20.1264 310.293 20.1009C310.543 20.0724 310.724 20.0256 310.838 19.9602C310.955 19.8949 311.013 19.7812 311.013 19.6193V19.5852C311.013 19.1648 310.898 18.8381 310.668 18.6051C310.44 18.3722 310.095 18.2557 309.632 18.2557C309.152 18.2557 308.776 18.3608 308.503 18.571C308.23 18.7812 308.038 19.0057 307.928 19.2443L306.973 18.9034C307.143 18.5057 307.371 18.196 307.655 17.9744C307.942 17.75 308.254 17.5937 308.592 17.5057C308.933 17.4148 309.268 17.3693 309.598 17.3693C309.808 17.3693 310.05 17.3949 310.322 17.446C310.598 17.4943 310.864 17.5952 311.119 17.7486C311.378 17.902 311.592 18.1335 311.763 18.4432C311.933 18.7528 312.018 19.1676 312.018 19.6875V24H311.013V23.1136H310.962C310.893 23.2557 310.78 23.4077 310.621 23.5696C310.462 23.7315 310.25 23.8693 309.986 23.983C309.722 24.0966 309.399 24.1534 309.018 24.1534ZM309.172 23.25C309.57 23.25 309.905 23.1719 310.178 23.0156C310.453 22.8594 310.661 22.6577 310.8 22.4105C310.942 22.1634 311.013 21.9034 311.013 21.6307V20.7102C310.97 20.7614 310.876 20.8082 310.732 20.8509C310.589 20.8906 310.425 20.9261 310.237 20.9574C310.053 20.9858 309.872 21.0114 309.696 21.0341C309.523 21.054 309.382 21.071 309.274 21.0852C309.013 21.1193 308.768 21.1747 308.541 21.2514C308.317 21.3253 308.135 21.4375 307.996 21.5881C307.859 21.7358 307.791 21.9375 307.791 22.1932C307.791 22.5426 307.92 22.8068 308.179 22.9858C308.44 23.1619 308.771 23.25 309.172 23.25ZM318.49 18.9205L317.587 19.1761C317.53 19.0256 317.446 18.8793 317.336 18.7372C317.228 18.5923 317.08 18.473 316.892 18.3793C316.705 18.2855 316.465 18.2386 316.172 18.2386C315.772 18.2386 315.438 18.331 315.171 18.5156C314.907 18.6974 314.775 18.929 314.775 19.2102C314.775 19.4602 314.865 19.6577 315.047 19.8026C315.229 19.9474 315.513 20.0682 315.9 20.1648L316.871 20.4034C317.456 20.5455 317.892 20.7628 318.179 21.0554C318.466 21.3452 318.61 21.7187 318.61 22.1761C318.61 22.5511 318.502 22.8864 318.286 23.1818C318.073 23.4773 317.775 23.7102 317.391 23.8807C317.007 24.0511 316.561 24.1364 316.053 24.1364C315.385 24.1364 314.833 23.9915 314.395 23.7017C313.958 23.4119 313.681 22.9886 313.564 22.4318L314.519 22.1932C314.61 22.5455 314.782 22.8097 315.034 22.9858C315.29 23.1619 315.624 23.25 316.036 23.25C316.505 23.25 316.877 23.1506 317.152 22.9517C317.431 22.75 317.57 22.5085 317.57 22.2273C317.57 22 317.49 21.8097 317.331 21.6562C317.172 21.5 316.928 21.3835 316.598 21.3068L315.507 21.0511C314.908 20.9091 314.468 20.6889 314.186 20.3906C313.908 20.0895 313.769 19.7131 313.769 19.2614C313.769 18.892 313.873 18.5653 314.08 18.2812C314.29 17.9972 314.576 17.7741 314.936 17.6122C315.3 17.4503 315.712 17.3693 316.172 17.3693C316.82 17.3693 317.328 17.5114 317.698 17.7955C318.07 18.0795 318.334 18.4545 318.49 18.9205ZM320.771 26.4545C320.601 26.4545 320.449 26.4403 320.315 26.4119C320.182 26.3864 320.089 26.3608 320.038 26.3352L320.294 25.4489C320.538 25.5114 320.754 25.5341 320.942 25.517C321.129 25.5 321.295 25.4162 321.44 25.2656C321.588 25.1179 321.723 24.8778 321.845 24.5455L322.033 24.0341L319.612 17.4545H320.703L322.51 22.6705H322.578L324.385 17.4545H325.476L322.697 24.9545C322.572 25.2926 322.418 25.5724 322.233 25.794C322.048 26.0185 321.834 26.1847 321.589 26.2926C321.348 26.4006 321.075 26.4545 320.771 26.4545ZM300.057 40V31.2727H303.006C303.688 31.2727 304.247 31.3892 304.685 31.6222C305.122 31.8523 305.446 32.169 305.656 32.5724C305.866 32.9759 305.972 33.4347 305.972 33.9489C305.972 34.4631 305.866 34.919 305.656 35.3168C305.446 35.7145 305.124 36.027 304.689 36.2543C304.254 36.4787 303.699 36.5909 303.023 36.5909H300.636V35.6364H302.989C303.455 35.6364 303.83 35.5682 304.114 35.4318C304.401 35.2955 304.608 35.1023 304.736 34.8523C304.866 34.5994 304.932 34.2983 304.932 33.9489C304.932 33.5994 304.866 33.294 304.736 33.0327C304.605 32.7713 304.396 32.5696 304.109 32.4276C303.822 32.2827 303.443 32.2102 302.972 32.2102H301.114V40H300.057ZM304.165 36.0795L306.312 40H305.085L302.972 36.0795H304.165ZM310.27 40.1364C309.64 40.1364 309.096 39.9972 308.638 39.7188C308.184 39.4375 307.833 39.0455 307.586 38.5426C307.341 38.0369 307.219 37.4489 307.219 36.7784C307.219 36.108 307.341 35.517 307.586 35.0057C307.833 34.4915 308.176 34.0909 308.617 33.804C309.06 33.5142 309.577 33.3693 310.168 33.3693C310.509 33.3693 310.846 33.4261 311.178 33.5398C311.51 33.6534 311.813 33.8381 312.086 34.0938C312.358 34.3466 312.576 34.6818 312.738 35.0994C312.9 35.517 312.98 36.0312 312.98 36.642V37.0682H307.935V36.1989H311.958C311.958 35.8295 311.884 35.5 311.736 35.2102C311.591 34.9205 311.384 34.6918 311.114 34.5241C310.847 34.3565 310.532 34.2727 310.168 34.2727C309.767 34.2727 309.421 34.3722 309.128 34.571C308.838 34.767 308.615 35.0227 308.459 35.3381C308.303 35.6534 308.225 35.9915 308.225 36.3523V36.9318C308.225 37.4261 308.31 37.8452 308.48 38.1889C308.654 38.5298 308.894 38.7898 309.201 38.9688C309.507 39.1449 309.864 39.233 310.27 39.233C310.534 39.233 310.773 39.196 310.986 39.1222C311.202 39.0455 311.388 38.9318 311.544 38.7812C311.701 38.6278 311.821 38.4375 311.907 38.2102L312.878 38.483C312.776 38.8125 312.604 39.1023 312.363 39.3523C312.121 39.5994 311.823 39.7926 311.468 39.9318C311.113 40.0682 310.713 40.1364 310.27 40.1364ZM317.357 33.4545V34.3068H313.965V33.4545H317.357ZM314.953 31.8864H315.959V38.125C315.959 38.4091 316 38.6222 316.083 38.7642C316.168 38.9034 316.276 38.9972 316.407 39.0455C316.54 39.0909 316.681 39.1136 316.828 39.1136C316.939 39.1136 317.03 39.108 317.101 39.0966C317.172 39.0824 317.229 39.071 317.272 39.0625L317.476 39.9659C317.408 39.9915 317.313 40.017 317.191 40.0426C317.069 40.071 316.914 40.0852 316.726 40.0852C316.442 40.0852 316.164 40.0241 315.891 39.902C315.621 39.7798 315.397 39.5938 315.218 39.3438C315.042 39.0938 314.953 38.7784 314.953 38.3977V31.8864ZM322.995 37.3239V33.4545H324V40H322.995V38.892H322.926C322.773 39.2244 322.534 39.5071 322.211 39.7401C321.887 39.9702 321.478 40.0852 320.983 40.0852C320.574 40.0852 320.211 39.9957 319.892 39.8168C319.574 39.6349 319.324 39.3622 319.142 38.9986C318.961 38.6321 318.87 38.1705 318.87 37.6136V33.4545H319.875V37.5455C319.875 38.0227 320.009 38.4034 320.276 38.6875C320.546 38.9716 320.89 39.1136 321.307 39.1136C321.557 39.1136 321.811 39.0497 322.07 38.9219C322.331 38.794 322.55 38.598 322.726 38.3338C322.905 38.0696 322.995 37.733 322.995 37.3239ZM325.842 40V33.4545H326.814V34.4432H326.882C327.001 34.1193 327.217 33.8565 327.53 33.6548C327.842 33.4531 328.195 33.3523 328.587 33.3523C328.661 33.3523 328.753 33.3537 328.864 33.3565C328.974 33.3594 329.058 33.3636 329.115 33.3693V34.392C329.081 34.3835 329.003 34.3707 328.881 34.3537C328.761 34.3338 328.635 34.3239 328.501 34.3239C328.183 34.3239 327.899 34.3906 327.649 34.5241C327.402 34.6548 327.206 34.8366 327.061 35.0696C326.919 35.2997 326.848 35.5625 326.848 35.858V40H325.842ZM331.313 36.0625V40H330.307V33.4545H331.279V34.4773H331.364C331.517 34.1449 331.75 33.8778 332.063 33.6761C332.375 33.4716 332.779 33.3693 333.273 33.3693C333.716 33.3693 334.104 33.4602 334.436 33.642C334.769 33.821 335.027 34.0938 335.212 34.4602C335.397 34.8239 335.489 35.2841 335.489 35.8409V40H334.483V35.9091C334.483 35.3949 334.35 34.9943 334.083 34.7074C333.816 34.4176 333.449 34.2727 332.983 34.2727C332.662 34.2727 332.375 34.3423 332.123 34.4815C331.873 34.6207 331.675 34.8239 331.53 35.0909C331.385 35.358 331.313 35.6818 331.313 36.0625ZM341.963 34.9205L341.06 35.1761C341.003 35.0256 340.919 34.8793 340.808 34.7372C340.7 34.5923 340.553 34.473 340.365 34.3793C340.178 34.2855 339.938 34.2386 339.645 34.2386C339.244 34.2386 338.911 34.331 338.643 34.5156C338.379 34.6974 338.247 34.929 338.247 35.2102C338.247 35.4602 338.338 35.6577 338.52 35.8026C338.702 35.9474 338.986 36.0682 339.372 36.1648L340.344 36.4034C340.929 36.5455 341.365 36.7628 341.652 37.0554C341.939 37.3452 342.082 37.7187 342.082 38.1761C342.082 38.5511 341.974 38.8864 341.759 39.1818C341.545 39.4773 341.247 39.7102 340.864 39.8807C340.48 40.0511 340.034 40.1364 339.526 40.1364C338.858 40.1364 338.305 39.9915 337.868 39.7017C337.43 39.4119 337.153 38.9886 337.037 38.4318L337.991 38.1932C338.082 38.5455 338.254 38.8097 338.507 38.9858C338.763 39.1619 339.097 39.25 339.509 39.25C339.977 39.25 340.349 39.1506 340.625 38.9517C340.903 38.75 341.043 38.5085 341.043 38.2273C341.043 38 340.963 37.8097 340.804 37.6562C340.645 37.5 340.401 37.3835 340.071 37.3068L338.98 37.0511C338.381 36.9091 337.94 36.6889 337.659 36.3906C337.381 36.0895 337.241 35.7131 337.241 35.2614C337.241 34.892 337.345 34.5653 337.553 34.2812C337.763 33.9972 338.048 33.7741 338.409 33.6122C338.773 33.4503 339.185 33.3693 339.645 33.3693C340.293 33.3693 340.801 33.5114 341.17 33.7955C341.543 34.0795 341.807 34.4545 341.963 34.9205Z" fill="#242F66"></path>
    </svg>