<svg
  xmlns="http://www.w3.org/2000/svg"
  xmlns:xlink="http://www.w3.org/1999/xlink"
  id="Layer_1"
  viewBox="0 0 327 71.72">
  <defs>
    <style>
      .cls-1,
      .cls-2 {
        fill: none;
      }
      .cls-3 {
        clip-path: url('#clippath');
      }
      .cls-4 {
        mask: url('#mask');
      }
      .cls-5 {
        fill: #f79e1b;
      }
      .cls-6 {
        fill: #f0721d;
      }
      .cls-7 {
        fill: #fbbc04;
      }
      .cls-8 {
        fill: #eb001b;
      }
      .cls-9 {
        fill: #ea4335;
      }
      .cls-10 {
        fill: #fff;
      }
      .cls-11 {
        fill: #f2ae14;
      }
      .cls-12 {
        fill: #f90;
      }
      .cls-13 {
        fill: #ff5f00;
      }
      .cls-14 {
        fill: #0f8047;
      }
      .cls-15 {
        fill: #242f66;
      }
      .cls-16 {
        fill: #4285f4;
      }
      .cls-17 {
        fill: #0e4595;
      }
      .cls-18 {
        fill: #34a853;
      }
      .cls-19 {
        fill: #26a6d1;
      }
      .cls-20 {
        fill: #2a2a89;
      }
      .cls-21 {
        fill: #5f259f;
      }
      .cls-22 {
        fill: #5f6368;
      }
      .cls-23 {
        clip-path: url('#clippath-1');
      }
      .cls-24 {
        clip-path: url('#clippath-3');
      }
      .cls-25 {
        clip-path: url('#clippath-2');
      }
      .cls-2 {
        stroke: #e8e9ea;
        stroke-width: 0.59px;
      }
      .cls-26 {
        fill: #191832;
      }
      .cls-26,
      .cls-27,
      .cls-28,
      .cls-29,
      .cls-30 {
        fill-rule: evenodd;
      }
      .cls-27 {
        fill: #1e398d;
      }
      .cls-28 {
        fill: #e83663;
      }
      .cls-29 {
        fill: #00aeef;
      }
      .cls-30 {
        fill: #010202;
      }
    </style>
    <clipPath
      id="clippath"><rect
        class="cls-1"
        x="19.1"
        y="43.44"
        width="21"
        height="8.56" /></clipPath>
    <clipPath
      id="clippath-1"><rect
        class="cls-1"
        x="51.32"
        y="44.37"
        width="21.34"
        height="6.69" /></clipPath>
    <clipPath
      id="clippath-2"><rect
        class="cls-1"
        x="89.31"
        y="42.72"
        width="10"
        height="10" /></clipPath>
    <clipPath
      id="clippath-3"><rect
        class="cls-1"
        x="148.31"
        y="43.72"
        width="28.8"
        height="8" /></clipPath>
    <mask
      id="mask"
      x="188.25"
      y="45.6"
      width="30.53"
      height="4.25"
      maskUnits="userSpaceOnUse">
      <g
        id="mask0_6186_248405"><path
          class="cls-10"
          d="m218.78,45.6h-30.53v4.25h30.53v-4.25Z" /></g>
    </mask>
  </defs><rect
    class="cls-10"
    width="327"
    height="71.72" /><path
    class="cls-15"
    d="m93.9,17.59l3.67.82c.2.05.35.23.35.44v4.46c0,.9-.45,1.73-1.19,2.23l-2.83,1.88-2.83-1.88c-.75-.5-1.19-1.33-1.19-2.23v-4.46c0-.21.15-.39.35-.44l3.67-.82Zm1.99,3.23l-2.21,2.21-1.26-1.26-.63.63,1.89,1.89,2.84-2.84-.63-.63Z" /><path
    class="cls-15"
    d="m105.2,18.2v7.8h-1.18v-6.62h-.05l-1.86,1.22v-1.13l1.94-1.27h1.15Zm4.82,7.93c-.6,0-1.12-.16-1.54-.48-.43-.31-.75-.77-.98-1.37-.23-.6-.34-1.33-.34-2.17s.11-1.57.34-2.17c.23-.6.56-1.06.98-1.37.43-.31.94-.47,1.54-.47s1.11.16,1.53.48c.43.31.75.77.98,1.37.23.6.34,1.32.34,2.16s-.11,1.58-.34,2.18c-.23.6-.55,1.06-.98,1.37-.43.31-.94.47-1.54.47Zm0-1.02c.53,0,.94-.26,1.24-.77.3-.52.45-1.26.45-2.23,0-.65-.07-1.19-.21-1.64-.14-.45-.33-.79-.58-1.02-.25-.23-.55-.35-.9-.35-.53,0-.94.26-1.24.78-.3.52-.45,1.26-.45,2.23,0,.65.07,1.2.2,1.65.14.45.33.79.58,1.02.25.23.55.34.91.34Zm6.92,1.02c-.6,0-1.12-.16-1.54-.48-.43-.31-.75-.77-.98-1.37-.22-.6-.34-1.33-.34-2.17s.11-1.57.34-2.17c.23-.6.56-1.06.98-1.37.43-.31.94-.47,1.54-.47s1.11.16,1.53.48c.43.31.75.77.98,1.37.23.6.34,1.32.34,2.16s-.11,1.58-.34,2.18c-.23.6-.55,1.06-.98,1.37-.43.31-.94.47-1.54.47Zm0-1.02c.53,0,.94-.26,1.24-.77.3-.52.45-1.26.45-2.23,0-.65-.07-1.19-.21-1.64-.13-.45-.33-.79-.58-1.02-.25-.23-.55-.35-.9-.35-.53,0-.94.26-1.24.78-.3.52-.45,1.26-.45,2.23,0,.65.07,1.2.2,1.65.14.45.33.79.58,1.02.25.23.55.34.91.34Zm8.27-.57v-.41c0-.29.06-.56.18-.81.12-.25.3-.44.54-.59.24-.15.53-.22.86-.22s.63.07.87.22c.23.15.41.34.53.59.12.25.18.52.18.81v.41c0,.29-.06.56-.18.81-.12.24-.3.44-.54.59-.23.15-.52.22-.86.22s-.63-.07-.87-.22c-.24-.15-.42-.35-.54-.59-.12-.25-.18-.52-.18-.81Zm.89-.41v.41c0,.22.05.42.16.59.1.18.29.27.54.27s.43-.09.54-.27c.1-.18.15-.38.15-.59v-.41c0-.22-.05-.42-.15-.59-.1-.18-.28-.27-.54-.27s-.43.09-.54.27c-.11.18-.16.38-.16.59Zm-4.81-4.05v-.41c0-.29.06-.56.18-.81.12-.25.31-.44.54-.59.24-.15.53-.22.86-.22s.63.07.87.22c.23.15.41.34.53.59.12.25.18.52.18.81v.41c0,.29-.06.56-.18.81-.12.24-.3.44-.53.59-.23.15-.52.22-.86.22s-.64-.07-.87-.22c-.23-.15-.41-.35-.53-.59-.12-.25-.18-.52-.18-.81Zm.89-.41v.41c0,.22.05.42.15.59.1.18.29.27.55.27s.43-.09.53-.27c.1-.18.16-.38.16-.59v-.41c0-.22-.05-.42-.15-.59-.1-.18-.28-.27-.54-.27s-.43.09-.54.27c-.1.18-.16.38-.16.59Zm-.53,6.33l5.36-7.8h.91l-5.36,7.8h-.91Zm15.6-4.42l-1.03.18c-.04-.13-.11-.26-.21-.38-.09-.12-.21-.22-.37-.29-.16-.08-.35-.11-.59-.11-.32,0-.59.07-.81.22-.21.14-.32.33-.32.55,0,.2.07.35.22.47.14.12.38.22.7.29l.93.21c.54.12.94.32,1.2.57.26.26.4.6.4,1.01,0,.35-.1.66-.31.94-.2.27-.48.48-.84.64-.36.15-.77.23-1.25.23-.65,0-1.19-.14-1.6-.42-.41-.28-.67-.68-.76-1.2l1.1-.17c.07.29.21.5.42.65.21.14.49.22.83.22.37,0,.67-.08.89-.23.22-.16.33-.35.33-.57,0-.18-.07-.34-.21-.46-.13-.12-.34-.22-.62-.28l-.99-.22c-.54-.12-.95-.32-1.21-.59-.26-.27-.39-.62-.39-1.03,0-.35.1-.65.29-.91.19-.26.46-.46.8-.61.34-.15.73-.22,1.17-.22.63,0,1.13.14,1.49.41.36.27.6.64.72,1.09Zm3.88,4.54c-.58,0-1.07-.12-1.49-.37-.41-.25-.73-.6-.96-1.05-.22-.45-.34-.98-.34-1.59s.11-1.13.34-1.58c.23-.46.54-.81.95-1.07.41-.26.88-.38,1.42-.38.33,0,.65.05.96.16.31.11.59.28.83.51.25.23.44.54.58.91.14.37.21.82.21,1.35v.4h-4.65v-.85h3.53c0-.3-.06-.56-.18-.8-.12-.23-.29-.42-.51-.55-.22-.13-.48-.2-.77-.2-.32,0-.6.08-.84.24-.24.15-.42.36-.55.61-.13.25-.19.52-.19.81v.67c0,.39.07.72.21,1,.14.27.33.48.58.63.25.14.54.21.87.21.21,0,.41-.03.59-.09.18-.06.33-.16.46-.28.13-.12.23-.28.3-.46l1.08.19c-.09.32-.24.6-.46.83-.22.24-.5.42-.83.55-.33.13-.71.19-1.14.19Zm6.23,0c-.57,0-1.05-.13-1.46-.38-.41-.26-.72-.62-.94-1.07-.22-.45-.33-.97-.33-1.56s.11-1.12.33-1.57c.22-.46.54-.81.94-1.07.41-.26.88-.38,1.44-.38.44,0,.84.08,1.19.25.35.16.63.39.84.69.22.29.34.64.38,1.03h-1.11c-.06-.27-.2-.51-.42-.71-.22-.2-.51-.3-.87-.3-.32,0-.6.08-.83.25-.24.16-.42.4-.55.71-.13.3-.2.66-.2,1.08s.06.79.19,1.1c.13.31.31.55.55.72.24.17.52.25.84.25.22,0,.41-.04.59-.12.18-.08.33-.2.45-.35.12-.15.21-.33.26-.54h1.11c-.04.38-.16.72-.37,1.01-.21.3-.48.53-.83.7-.34.17-.74.25-1.21.25Zm7.32-2.54v-3.42h1.14v5.85h-1.12v-1.01h-.06c-.13.31-.35.57-.65.78-.29.21-.66.31-1.1.31-.38,0-.71-.08-1-.25-.29-.17-.51-.41-.68-.74-.16-.33-.24-.73-.24-1.21v-3.72h1.14v3.58c0,.4.11.72.33.95.22.24.51.35.86.35.21,0,.43-.05.64-.16.21-.11.39-.27.53-.48.14-.22.21-.49.21-.82Zm2.67,2.42v-5.85h1.1v.93h.06c.11-.31.29-.56.56-.74.27-.18.58-.27.92-.27.07,0,.15,0,.25,0,.1,0,.18.01.23.02v1.09s-.13-.03-.24-.04c-.12-.02-.23-.03-.35-.03-.27,0-.51.06-.72.17-.21.11-.37.27-.49.47-.12.2-.18.42-.18.68v3.57h-1.14Zm6.43.12c-.58,0-1.07-.12-1.49-.37-.41-.25-.73-.6-.96-1.05-.22-.45-.34-.98-.34-1.59s.11-1.13.34-1.58c.23-.46.54-.81.94-1.07.41-.26.88-.38,1.42-.38.33,0,.65.05.96.16.31.11.59.28.83.51.25.23.44.54.58.91.14.37.21.82.21,1.35v.4h-4.65v-.85h3.53c0-.3-.06-.56-.18-.8-.12-.23-.29-.42-.51-.55-.22-.13-.47-.2-.77-.2-.32,0-.6.08-.84.24-.24.15-.42.36-.55.61-.13.25-.19.52-.19.81v.67c0,.39.07.72.21,1,.14.27.33.48.58.63.25.14.54.21.87.21.22,0,.41-.03.59-.09.18-.06.33-.16.46-.28.13-.12.23-.28.3-.46l1.08.19c-.09.32-.24.6-.46.83-.22.24-.5.42-.83.55-.33.13-.71.19-1.14.19Zm9.34-5.97v.91h-3.19v-.91h3.19Zm-2.34-1.4h1.14v5.53c0,.22.03.39.1.5.07.11.15.18.25.22.11.04.22.06.35.06.09,0,.17,0,.24-.02.07-.01.12-.02.16-.03l.21.94c-.07.03-.16.05-.28.08-.12.03-.27.04-.46.05-.3,0-.58-.05-.84-.16-.26-.11-.47-.28-.63-.52-.16-.23-.24-.53-.24-.88v-5.77Zm3.6,7.25v-5.85h1.1v.93h.06c.11-.31.3-.56.56-.74.27-.18.58-.27.92-.27.07,0,.15,0,.25,0,.1,0,.18.01.23.02v1.09s-.13-.03-.24-.04c-.12-.02-.23-.03-.35-.03-.27,0-.51.06-.72.17-.21.11-.37.27-.49.47-.12.2-.18.42-.18.68v3.57h-1.14Zm5.76.13c-.37,0-.71-.07-1.01-.21-.3-.14-.54-.34-.71-.61-.17-.26-.26-.59-.26-.97,0-.33.06-.6.19-.81s.3-.38.51-.51c.22-.12.46-.22.72-.28.27-.06.54-.11.82-.14.35-.04.63-.07.85-.1.22-.03.38-.07.48-.13.1-.06.15-.16.15-.3v-.03c0-.33-.09-.59-.28-.77-.18-.18-.46-.27-.83-.27s-.68.08-.91.25c-.22.17-.37.35-.45.56l-1.07-.24c.13-.36.31-.64.56-.86.25-.22.53-.38.85-.48.32-.1.66-.15,1.01-.15.23,0,.48.03.74.08.26.05.51.15.74.3.23.14.42.35.57.62.15.27.22.61.22,1.04v3.88h-1.11v-.8h-.04c-.07.15-.18.29-.33.43-.15.14-.34.26-.57.35s-.51.14-.83.14Zm.25-.91c.32,0,.58-.06.81-.19.23-.12.4-.29.51-.49.12-.2.18-.42.18-.65v-.75s-.12.08-.24.11c-.11.03-.25.06-.39.09-.15.02-.29.04-.43.06-.14.02-.26.03-.35.05-.22.03-.42.07-.6.14-.18.07-.33.16-.43.29-.11.12-.16.28-.16.49,0,.28.1.49.31.64.21.14.47.21.8.21Zm5.29-2.69v3.47h-1.14v-5.85h1.09v.95h.07c.13-.31.35-.56.63-.75.29-.19.65-.28,1.09-.28.4,0,.75.08,1.05.25.3.16.53.41.7.74.16.33.25.73.25,1.21v3.72h-1.14v-3.58c0-.42-.11-.75-.33-.99-.22-.24-.52-.36-.91-.36-.26,0-.5.06-.7.17-.2.11-.36.28-.48.5-.12.22-.17.48-.17.79Zm9.65-.95l-1.03.18c-.04-.13-.11-.26-.21-.38-.09-.12-.22-.22-.37-.29-.16-.08-.35-.11-.59-.11-.32,0-.59.07-.81.22-.22.14-.32.33-.32.55,0,.2.07.35.22.47.15.12.38.22.7.29l.93.21c.54.12.94.32,1.2.57.26.26.4.6.4,1.01,0,.35-.1.66-.3.94-.2.27-.48.48-.84.64-.36.15-.77.23-1.24.23-.65,0-1.19-.14-1.6-.42-.41-.28-.67-.68-.76-1.2l1.1-.17c.07.29.21.5.42.65.21.14.49.22.83.22.37,0,.67-.08.89-.23.22-.16.34-.35.34-.57,0-.18-.07-.34-.21-.46-.14-.12-.34-.22-.62-.28l-.99-.22c-.55-.12-.95-.32-1.21-.59-.26-.27-.39-.62-.39-1.03,0-.35.1-.65.29-.91.19-.26.46-.46.8-.61.34-.15.73-.22,1.17-.22.63,0,1.13.14,1.49.41.36.27.6.64.72,1.09Zm3.07,4.55c-.37,0-.71-.07-1.01-.21-.3-.14-.54-.34-.71-.61-.17-.26-.26-.59-.26-.97,0-.33.06-.6.19-.81s.3-.38.51-.51c.21-.12.46-.22.72-.28.27-.06.54-.11.82-.14.35-.04.63-.07.85-.1.22-.03.38-.07.48-.13s.15-.16.15-.3v-.03c0-.33-.09-.59-.28-.77-.18-.18-.46-.27-.83-.27s-.69.08-.91.25c-.22.17-.37.35-.45.56l-1.07-.24c.13-.36.31-.64.56-.86.25-.22.53-.38.85-.48.32-.1.66-.15,1.01-.15.23,0,.48.03.74.08.26.05.51.15.74.3.23.14.42.35.57.62.15.27.22.61.22,1.04v3.88h-1.11v-.8h-.05c-.07.15-.18.29-.33.43-.15.14-.34.26-.57.35s-.51.14-.83.14Zm.25-.91c.31,0,.58-.06.81-.19.23-.12.4-.29.51-.49.12-.2.18-.42.18-.65v-.75s-.12.08-.24.11c-.11.03-.24.06-.39.09-.15.02-.29.04-.43.06-.14.02-.26.03-.35.05-.22.03-.42.07-.61.14-.18.07-.32.16-.43.29-.11.12-.16.28-.16.49,0,.28.1.49.31.64.21.14.47.21.8.21Zm6.62.9c-.57,0-1.05-.13-1.46-.38-.41-.26-.72-.62-.94-1.07-.22-.45-.33-.97-.33-1.56s.11-1.12.34-1.57c.22-.46.54-.81.94-1.07.41-.26.88-.38,1.43-.38.44,0,.84.08,1.19.25.35.16.63.39.84.69.22.29.34.64.38,1.03h-1.11c-.06-.27-.2-.51-.42-.71-.22-.2-.5-.3-.87-.3-.32,0-.6.08-.83.25-.24.16-.42.4-.55.71-.13.3-.2.66-.2,1.08s.06.79.19,1.1c.13.31.31.55.55.72.24.17.52.25.84.25.22,0,.41-.04.59-.12.18-.08.33-.2.45-.35.12-.15.21-.33.26-.54h1.11c-.04.38-.16.72-.37,1.01-.21.3-.48.53-.83.7-.34.17-.74.25-1.21.25Zm6.35-5.97v.91h-3.19v-.91h3.19Zm-2.34-1.4h1.14v5.53c0,.22.03.39.1.5.07.11.15.18.26.22.11.04.22.06.35.06.09,0,.17,0,.24-.02.07-.01.12-.02.16-.03l.21.94c-.07.03-.16.05-.28.08-.12.03-.27.04-.46.05-.3,0-.58-.05-.84-.16-.26-.11-.47-.28-.63-.52-.16-.23-.24-.53-.24-.88v-5.77Zm3.6,7.25v-5.85h1.14v5.85h-1.14Zm.57-6.75c-.2,0-.37-.07-.51-.2-.14-.13-.21-.29-.21-.48s.07-.35.21-.48c.14-.13.31-.2.51-.2s.37.07.51.2c.14.13.21.29.21.48s-.07.35-.21.48c-.14.13-.31.2-.51.2Zm4.56,6.87c-.55,0-1.03-.13-1.44-.38-.41-.25-.72-.6-.95-1.05-.23-.45-.34-.98-.34-1.58s.11-1.14.34-1.59c.23-.45.54-.81.95-1.06.41-.25.89-.38,1.44-.38s1.03.13,1.44.38c.41.25.73.6.95,1.06.23.45.34.98.34,1.59s-.11,1.13-.34,1.58c-.23.45-.54.8-.95,1.05-.41.25-.89.38-1.44.38Zm0-.96c.36,0,.65-.09.88-.28.23-.19.41-.44.52-.75.11-.31.17-.66.17-1.03s-.06-.72-.17-1.03c-.11-.31-.28-.57-.52-.76-.23-.19-.53-.29-.88-.29s-.65.1-.89.29c-.23.19-.41.44-.52.76-.11.31-.17.65-.17,1.03s.06.72.17,1.03c.11.31.29.56.52.75.24.19.53.28.89.28Zm5.13-2.63v3.47h-1.14v-5.85h1.09v.95h.07c.13-.31.35-.56.63-.75.29-.19.65-.28,1.09-.28.4,0,.75.08,1.05.25.3.16.53.41.7.74.16.33.25.73.25,1.21v3.72h-1.14v-3.58c0-.42-.11-.75-.33-.99-.22-.24-.52-.36-.91-.36-.26,0-.5.06-.7.17-.2.11-.36.28-.48.5-.12.22-.18.48-.18.79Z" /><rect
    class="cls-10"
    x="16.3"
    y="40.02"
    width="26.61"
    height="15.41"
    rx="1.87"
    ry="1.87" /><g
    class="cls-3"><path
      class="cls-22"
      d="m29.06,47.6v2.5h-.77v-6.17h2.05c.49,0,.97.18,1.33.54.36.33.56.81.55,1.3,0,.5-.19.97-.55,1.31-.36.35-.8.53-1.33.53h-1.28Zm0-2.91v2.15h1.3c.29,0,.57-.11.76-.32.41-.4.41-1.07.02-1.48l-.02-.02c-.2-.22-.48-.33-.76-.32h-1.3Zm4.94,1.05c.57,0,1.02.16,1.36.47.33.31.49.74.49,1.29v2.6h-.74v-.59h-.03c-.32.48-.74.72-1.28.72-.45,0-.84-.14-1.14-.41-.3-.26-.47-.63-.46-1.03,0-.44.16-.78.49-1.04.32-.26.75-.39,1.29-.39.46,0,.84.09,1.13.26v-.18c0-.27-.12-.53-.32-.7-.21-.19-.47-.29-.74-.29-.43,0-.77.19-1.03.56l-.68-.44c.37-.55.92-.82,1.66-.82Zm-1,3.06c0,.21.1.4.25.52.17.14.38.21.6.21.33,0,.64-.13.87-.37.25-.25.38-.54.38-.87-.24-.2-.58-.29-1.01-.29-.31,0-.58.08-.79.23-.21.16-.31.35-.31.58Zm7.1-2.93l-2.59,6.08h-.8l.96-2.12-1.7-3.95h.84l1.23,3.03h.02l1.2-3.03h.84Z" /><path
      class="cls-16"
      d="m25.93,47.06c0-.24-.02-.48-.06-.72h-3.26v1.36h1.87c-.08.44-.33.83-.69,1.08v.89h1.11c.65-.61,1.03-1.52,1.03-2.61Z" /><path
      class="cls-18"
      d="m22.61,50.52c.93,0,1.72-.31,2.29-.86l-1.11-.89c-.31.22-.71.34-1.18.34-.9,0-1.67-.62-1.94-1.46h-1.15v.91c.59,1.19,1.78,1.95,3.09,1.95Z" /><path
      class="cls-7"
      d="m20.67,47.66c-.14-.44-.14-.91,0-1.36v-.91h-1.15c-.24.49-.37,1.04-.37,1.59s.13,1.1.37,1.59l1.15-.91Z" /><path
      class="cls-9"
      d="m22.61,44.84c.5,0,.97.18,1.33.53l.99-1.01c-.62-.6-1.45-.93-2.31-.92-1.31,0-2.5.76-3.09,1.95l1.15.91c.27-.84,1.04-1.47,1.94-1.47Z" /></g><rect
    class="cls-2"
    x="16.3"
    y="40.02"
    width="26.61"
    height="15.41"
    rx="1.87"
    ry="1.87" /><rect
    class="cls-10"
    x="48.52"
    y="40.02"
    width="26.96"
    height="15.41"
    rx="1.87"
    ry="1.87" /><g
    class="cls-23"><path
      class="cls-27"
      d="m51.34,45.68c0-.15.1-.22.22-.22h2.18c.67.08,1.13.42,1.18,1.31v1.21c0,.18-.01.33-.06.51-.17.58-.59.87-1.21.91h-.93v1.48c0,.11-.09.17-.21.17h-.98c-.12,0-.21-.07-.21-.2l.02-5.16Zm1.38,1.15h.58c.13,0,.24.11.24.24v.7c0,.13-.11.24-.24.24h-.58v-1.17h0Z" /><path
      class="cls-27"
      d="m56,45.46h1.52c.89.05,1.37.52,1.36,1.49v3.59c0,.28-.28.49-.52.49h-2c-.61,0-1.01-.47-1.11-.93-.1-.44-.02-.98-.02-1.44,0-.7.46-1.39,1.24-1.39h.81c.24-.01.22-.53,0-.51h-1.27c-.13,0-.22-.07-.23-.2v-.94c0-.12.1-.16.22-.16Zm.84,3.11h.47c.11,0,.2.09.2.2v.81c0,.11-.09.2-.2.2h-.47c-.11,0-.2-.09-.2-.2v-.81c0-.11.09-.2.2-.2Z" /><path
      class="cls-27"
      d="m59.35,45.72v2.27c.06.71.69,1.24,1.39,1.24h.64c.26,0,.25.44,0,.44h-1.39c-.15,0-.2.08-.2.21v1c0,.1.08.18.19.18h1.29c1.07,0,1.69-.52,1.69-1.67v-3.76c0-.12-.08-.17-.15-.17h-1.08c-.1,0-.16.11-.16.19v2.06c0,.09-.05.14-.13.14h-.51c-.12,0-.18-.06-.18-.18v-1.99c0-.13-.05-.23-.2-.23h-1.04c-.12,0-.15.12-.15.26h0Z" /><path
      class="cls-29"
      d="m63.49,46.65v-.98c0-.1.09-.19.19-.19h.24c.61-.13.75-.49,1.13-.89.23-.25.43-.31.58-.05v.93h.56c.1,0,.19.09.19.19v.98c0,.1-.09.19-.19.19h-.56v4.02c0,.1-.08.19-.19.19h-.98c-.1,0-.19-.08-.19-.19v-4.02h-.57c-.1,0-.19-.08-.19-.19Z" /><path
      class="cls-29"
      d="m70.44,50.8c0,.13-.11.24-.24.24h-.92c-.13,0-.24-.11-.24-.24v-3.69c0-.4-.8-.46-.8,0v3.69c0,.13-.11.24-.24.24h-.92c-.13,0-.24-.11-.24-.24v-5.12c0-.13.11-.24.24-.24h.92c.13,0,.24.11.24.24v.07c.54-.51,1.47-.43,1.96.1.93-1.07,2.53-.12,2.46,1.06,0,1.29-.01,2.58-.01,3.89,0,.13-.11.24-.24.24h-.92c-.13,0-.24-.11-.24-.24v-3.67c-.05-.51-.83-.39-.83,0,0,1.22,0,2.44,0,3.67h0Z" /></g><rect
    class="cls-2"
    x="48.52"
    y="40.02"
    width="26.96"
    height="15.41"
    rx="1.87"
    ry="1.87" /><rect
    class="cls-10"
    x="81.08"
    y="40.02"
    width="26.46"
    height="15.41"
    rx="1.87"
    ry="1.87" /><g
    class="cls-25"><path
      class="cls-21"
      d="m95.46,42.85c-.96-.23-1.97-.16-2.9.18-.93.35-1.73.96-2.31,1.76s-.91,1.76-.94,2.75c-.04.99.22,1.96.74,2.8.52.84,1.28,1.51,2.18,1.92.9.41,1.9.55,2.88.39.98-.16,1.88-.6,2.61-1.28.72-.67,1.23-1.55,1.46-2.51.15-.64.17-1.3.07-1.95-.11-.65-.34-1.27-.68-1.83-.35-.56-.8-1.04-1.33-1.43-.53-.38-1.14-.66-1.77-.81Z" /><path
      class="cls-10"
      d="m96.58,46.41c0-.1-.04-.19-.11-.25-.07-.07-.16-.11-.25-.11h-.67l-1.54-1.76c-.07-.08-.17-.14-.27-.17-.1-.03-.21-.03-.32,0l-.53.17s-.04.02-.05.03c-.01.01-.02.03-.03.05,0,.02,0,.04,0,.06,0,.02.01.04.03.05l1.68,1.59h-2.54s-.04,0-.05,0c-.02,0-.03.02-.05.03-.01.01-.02.03-.03.05,0,.02,0,.04,0,.05v.28c0,.1.04.19.11.25.07.07.16.11.25.11h.39v1.34c0,1.01.53,1.59,1.42,1.59.27,0,.53-.04.78-.14v.9c0,.06.01.12.03.17.02.05.06.1.1.15.04.04.09.07.15.1.05.02.11.03.17.03h.39s.08-.02.12-.05.05-.07.05-.12v-3.99h.64s.04,0,.05,0c.02,0,.03-.02.05-.03.01-.01.02-.03.03-.05,0-.02,0-.04,0-.05v-.28Zm-1.79,2.4c-.18.08-.37.12-.56.11-.45,0-.67-.22-.67-.73v-1.34h1.23v1.95h0Z" /></g><rect
    class="cls-2"
    x="81.08"
    y="40.02"
    width="26.46"
    height="15.41"
    rx="1.87"
    ry="1.87" /><rect
    class="cls-10"
    x="113.15"
    y="40.02"
    width="26.75"
    height="15.41"
    rx="1.87"
    ry="1.87" /><rect
    class="cls-1"
    x="115.96"
    y="44.2"
    width="21.14"
    height="7.05" /><rect
    class="cls-2"
    x="113.15"
    y="40.02"
    width="26.75"
    height="15.41"
    rx="1.87"
    ry="1.87" /><rect
    class="cls-10"
    x="145.51"
    y="40.02"
    width="34.41"
    height="15.41"
    rx="1.87"
    ry="1.87" /><g
    class="cls-24"><path
      class="cls-20"
      d="m163.83,45.82c.13-1.06-.65-1.5-1.63-1.5h-2.57l-1.51,5.69h1.63l.46-1.76h1.3s2.01.1,2.32-2.44h0Zm-1.68.57c-.21.61-.8.54-.8.54h-.8l.32-1.21s.51,0,.84,0c.41,0,.56.33.44.67h0Z" /><path
      class="cls-20"
      d="m154.52,45.88h1.49l-.61,2.43s-.15.54.34.58c.39.03.68-.44.77-.77.12-.42.61-2.25.61-2.25h1.53l-1.17,4.14h-1.34l.16-.59s-.68.86-1.7.76c-.9-.09-.98-.77-.82-1.61.08-.41.73-2.69.73-2.69Z" /><path
      class="cls-20"
      d="m167.45,47.97c.2-.69.44-1.34.24-1.7-.3-.55-.86-.6-1.66-.6-.89,0-1.99.17-2.35,1.4h1.49s.14-.46.69-.43c.49.03.47.38.29.57-.32.34-1.2.15-2.18.5-.85.3-1.15,1.46-.96,1.92.18.45.51.5.96.55.72.07,1.28-.34,1.54-.59,0,.27,0,.42,0,.42h1.56v-.15s-.14-.04-.13-.24c.01-.15.28-.86.51-1.65h0Zm-2.25,1.2c-.25.07-.56.1-.62-.14-.17-.65,1.32-.85,1.32-.85.01.6-.5.93-.69.98h0Z" /><path
      class="cls-20"
      d="m154.15,45.64c.13-1.06-.77-1.33-1.75-1.33h-2.57l-1.51,5.69h1.63l.51-1.93h.91s.38-.02.39.35c0,.39-.28,1.11-.26,1.58h1.68v-.15s-.14-.04-.13-.24c0-.08.1-.35.21-.71.07-.16.18-.53.17-.84-.01-.38-.24-.56-.58-.68,1.04-.25,1.3-1.75,1.3-1.75h0Zm-1.73.73c-.21.5-.87.45-.87.45h-.76s.28-1.07.28-1.07c0,0,.68,0,1.01,0,.36,0,.47.3.33.62Z" /><path
      class="cls-20"
      d="m168.16,45.88h1.51v2.48l1.31-2.48h1.39l-2.8,5.02s-.26.42-.58.64c-.27.18-.59.18-.69.18-.55,0-1.22,0-1.22,0l.32-1.2h.52s.24-.03.33-.15c.09-.12.13-.23.13-.4,0-.25-.22-4.09-.22-4.09h0Z" /><path
      class="cls-14"
      d="m174.32,44.92l-1.75,6.27,3.27-3.14-1.52-3.14Z" /><path
      class="cls-6"
      d="m173.19,44.92l-1.75,6.27,3.27-3.14-1.52-3.14Z" /></g><rect
    class="cls-2"
    x="145.51"
    y="40.02"
    width="34.41"
    height="15.41"
    rx="1.87"
    ry="1.87" /><rect
    class="cls-10"
    x="185.53"
    y="40.02"
    width="35.97"
    height="15.41"
    rx="1.87"
    ry="1.87" /><g
    class="cls-4"><path
      class="cls-30"
      d="m198.41,48.93v.47c0,.1-.04.16-.17.16h-2.33c-.13,0-.16-.06-.16-.16v-3.4c0-.13.06-.16.16-.16h.56c.1,0,.16.04.16.16v2.77h1.62c.13,0,.16.05.16.16Z" /><path
      class="cls-30"
      d="m205.51,48.93v.47c0,.1-.04.16-.17.16h-2.45c-.15,0-.17-.03-.17-.16v-.45c0-.13.07-.21.07-.21l1.51-2.12h-1.37c-.13,0-.16-.06-.16-.16v-.47c0-.1.04-.16.16-.16h2.26c.13,0,.16.06.16.16v.44c0,.07-.01.15-.07.22l-1.5,2.11h1.55c.13,0,.17.07.17.17Z" /><path
      class="cls-30"
      d="m209.17,45.99l-1.15,2.17v1.24c0,.13-.06.16-.16.16h-.56c-.11,0-.16-.04-.16-.16v-1.24l-1.2-2.17c-.02-.06-.01-.16.09-.16h.65c.13,0,.18.01.26.17l.66,1.22.63-1.22c.07-.15.13-.17.26-.17h.6c.1,0,.11.09.08.16Z" /><path
      class="cls-30"
      d="m211.77,47.15c0-.29-.19-.54-.62-.54h-.54v1.06h.54c.43.01.62-.23.62-.52Zm.85-.01c0,.79-.52,1.31-1.48,1.31h-.54v.94c0,.13-.06.16-.16.16h-.56c-.1,0-.16-.04-.16-.16v-3.4c0-.1.04-.16.16-.16h1.26c.96,0,1.47.53,1.47,1.31Z" /><path
      class="cls-30"
      d="m218.75,45.99l-1.15,2.17v1.24c0,.13-.06.16-.16.16h-.56c-.11,0-.16-.04-.16-.16v-1.24l-1.2-2.17c-.03-.06-.01-.16.09-.16h.65c.13,0,.18.01.26.17l.66,1.22.63-1.22c.07-.15.13-.17.26-.17h.6c.1,0,.12.09.09.16Z" /><path
      class="cls-30"
      d="m198.85,49.39l1.2-3.39c.07-.15.11-.17.23-.17h.54c.12,0,.16.02.23.17l1.2,3.39c.02.07,0,.16-.1.16h-.62c-.15,0-.18-.05-.23-.18l-.75-2.35-.75,2.35c-.05.14-.08.18-.24.18h-.59c-.12,0-.13-.09-.11-.16Z" /><path
      class="cls-30"
      d="m212.43,49.39l1.2-3.39c.07-.15.11-.17.23-.17h.54c.12,0,.16.02.23.17l1.2,3.39c.02.07,0,.16-.1.16h-.62c-.15,0-.18-.05-.23-.18l-.75-2.35-.76,2.35c-.05.14-.08.18-.24.18h-.59c-.11,0-.13-.09-.1-.16Z" /><path
      class="cls-28"
      d="m188.45,49.72c-.15,0-.2-.07-.2-.2v-3.39c0-.16.07-.2.2-.2h.67c.12,0,.2.04.2.2v2.62" /><path
      class="cls-26"
      d="m188.45,45.61l4.08,1.48c.18.09.2.13.2.28v.66c0,.15-.02.2-.2.28l-4.08,1.48c-.09.04-.2,0-.2-.12v-.75c0-.18.06-.23.22-.28l2.81-.94-2.82-.94c-.17-.05-.22-.1-.22-.29v-.73c0-.14.12-.16.2-.13Z" /><path
      class="cls-28"
      d="m189.89,45.61l4.08,1.48c.18.09.2.13.2.28v.66c0,.15-.03.2-.2.28l-4.08,1.48c-.09.04-.19,0-.19-.12v-.75c0-.18.05-.23.22-.28l2.82-.93-2.82-.94c-.17-.05-.22-.1-.22-.29v-.73c0-.14.1-.16.19-.13Z" /></g><rect
    class="cls-2"
    x="185.53"
    y="40.02"
    width="35.97"
    height="15.41"
    rx="1.87"
    ry="1.87" /><rect
    class="cls-10"
    x="227.11"
    y="40.02"
    width="20.7"
    height="15.41"
    rx="1.87"
    ry="1.87" /><path
    class="cls-13"
    d="m239.5,44.05h-4.08v7.33h4.08v-7.33Z" /><path
    class="cls-8"
    d="m235.68,47.72c0-.71.16-1.4.47-2.04.31-.64.76-1.19,1.31-1.63-.69-.54-1.51-.88-2.38-.97-.87-.09-1.75.06-2.54.44-.79.38-1.45.98-1.92,1.72-.46.74-.71,1.6-.71,2.47s.25,1.73.71,2.47c.46.74,1.13,1.34,1.92,1.72.79.38,1.66.54,2.54.44.87-.09,1.69-.43,2.38-.97-.56-.44-1-.99-1.31-1.63-.31-.63-.47-1.33-.47-2.04Z" /><path
    class="cls-5"
    d="m245,47.72c0,.87-.25,1.73-.71,2.47-.46.74-1.13,1.34-1.91,1.72-.79.38-1.67.54-2.54.44-.87-.09-1.69-.43-2.38-.97.55-.44,1-.99,1.31-1.63.31-.63.47-1.33.47-2.04s-.16-1.4-.47-2.04c-.31-.63-.76-1.19-1.31-1.63.69-.54,1.51-.88,2.38-.97.87-.09,1.75.06,2.54.44.79.38,1.45.98,1.91,1.72.46.74.71,1.6.71,2.47Z" /><path
    class="cls-5"
    d="m244.55,50.61v-.15h.06v-.03h-.15v.03h.06v.15h.03Zm.3,0v-.18h-.05l-.06.12-.05-.12h-.05v.18h.03v-.14l.05.12h.03l.05-.12v.14h.03Z" /><rect
    class="cls-2"
    x="227.11"
    y="40.02"
    width="20.7"
    height="15.41"
    rx="1.87"
    ry="1.87" /><rect
    class="cls-10"
    x="253.42"
    y="40.02"
    width="26.29"
    height="15.41"
    rx="1.87"
    ry="1.87" /><path
    d="m262.56,42.38l-.12.02c-.37.05-.72.18-1.02.41-.07.04-.12.09-.19.14,0-.01-.01-.03-.01-.04-.01-.07-.02-.15-.03-.22-.02-.12-.08-.18-.2-.18h-.31c-.19,0-.22.04-.22.22v5.69c0,.09.06.13.13.14h.57c.08,0,.12-.05.13-.14,0-.03,0-.05,0-.08v-1.98s.05.04.06.05c.48.4,1.03.53,1.63.41.55-.11.93-.45,1.17-.94.19-.37.27-.75.27-1.17.01-.45-.03-.89-.22-1.31-.22-.52-.6-.87-1.17-.99-.09-.02-.18-.03-.26-.04-.08,0-.15,0-.22,0Zm4.36,0s-.05.01-.08.01c-.26.01-.52.05-.77.11-.16.04-.32.1-.48.15-.1.03-.14.1-.14.21,0,.09,0,.18,0,.26,0,.13.06.16.18.13.21-.05.42-.11.63-.15.33-.06.66-.09,1-.04.18.03.34.08.45.23.1.12.14.28.14.44,0,.22,0,.4,0,.62,0,.01,0,.03,0,.03h-.03c-.28-.07-.57-.11-.86-.13-.3-.01-.6,0-.89.11-.35.12-.63.33-.79.67-.12.26-.14.54-.1.82.06.38.24.67.58.85.32.18.66.2,1.02.14.41-.06.77-.23,1.08-.49.01-.01.03-.02.04-.03.02.1.03.2.05.3.01.09.07.14.15.14h.44c.07,0,.12-.06.12-.13,0-.02,0-.05,0-.07v-2.8c0-.11,0-.23-.03-.34-.05-.35-.2-.64-.51-.82-.18-.1-.37-.16-.58-.19-.1-.01-.19-.02-.29-.03h-.32Zm2.27,0c-.07,0-.1.06-.09.12.01.05.03.11.05.16.52,1.3,1.05,2.59,1.58,3.9.05.11.05.2,0,.31-.08.2-.16.4-.25.6-.08.18-.21.31-.41.36-.13.03-.27.05-.41.03-.07,0-.13-.02-.2-.03-.09,0-.14.03-.14.13v.26c0,.15.05.22.2.24.14.03.29.04.45.05.46,0,.82-.18,1.06-.58.1-.16.18-.32.25-.49.64-1.61,1.26-3.2,1.89-4.82.02-.05.03-.09.04-.14.01-.08-.03-.12-.1-.12h-.53c-.09,0-.18.05-.21.14-.01.04-.03.07-.04.11l-.94,2.68c-.07.19-.14.39-.2.6-.01-.03-.02-.05-.03-.07-.35-.96-.69-1.91-1.04-2.87-.05-.16-.11-.31-.17-.46-.03-.07-.09-.12-.17-.12-.2,0-.41,0-.61,0Zm-6.64.68c.4.03.73.23.9.69.11.29.13.57.13.87,0,.28-.02.53-.1.8-.18.57-.6.79-1.14.77-.38-.02-.7-.16-1-.37-.03-.02-.05-.05-.05-.08v-2.22s.01-.07.05-.09c.37-.26.77-.39,1.22-.35Zm4.25,1.77c.11,0,.23,0,.34,0,.22.02.45.06.67.09.05,0,.06.03.06.07,0,.13,0,.26,0,.39s0,.25,0,.38c0,.03-.01.06-.04.08-.3.22-.63.36-1,.4-.15.01-.3.01-.44-.05-.16-.06-.29-.2-.33-.36-.05-.17-.05-.35,0-.52.07-.22.23-.35.44-.42.11-.03.22-.05.33-.06Z" /><path
    class="cls-12"
    d="m272.27,49.58c.47-.33,1.09-.45,1.61-.45.52,0,.95.1,1.04.21.18.22-.05,1.76-.93,2.5-.14.11-.26.05-.2-.1v-.02c.21-.51.64-1.58.43-1.85-.21-.27-1.38-.13-1.91-.06h0c-.16.02-.19-.12-.04-.22Z" /><path
    class="cls-12"
    d="m258.21,49.98c-.13-.12-.08-.28.05-.29.04,0,.09,0,.14.04,2.37,1.44,5.31,2.07,8.34,2.07,2.05,0,4.29-.44,6.36-1.35.31-.14.57.21.27.45-1.85,1.42-4.52,2.17-6.82,2.17-3.23,0-6.13-1.01-8.33-3.07Z" /><rect
    class="cls-2"
    x="253.42"
    y="40.02"
    width="26.29"
    height="15.41"
    rx="1.87"
    ry="1.87" /><rect
    class="cls-19"
    x="285.02"
    y="39.72"
    width="22.55"
    height="16"
    rx="2.17"
    ry="2.17" /><path
    class="cls-19"
    d="m290.82,43.22h10.96c.43,0,.78.35.78.78v7.43c0,.43-.35.78-.78.78h-10.96c-.43,0-.78-.35-.78-.78v-7.43c0-.43.35-.78.78-.78Z" /><path
    class="cls-10"
    d="m292.05,46.35l-1.24,2.74h1.48l.18-.44h.42l.18.44h1.63v-.33l.15.33h.84l.15-.34v.34h3.39l.41-.42.39.42h1.74s-1.24-1.36-1.24-1.36l1.24-1.38h-1.71l-.4.42-.37-.42h-3.69l-.32.71-.32-.71h-1.48v.32l-.16-.32h-1.26Zm.29.39h.72l.82,1.86v-1.86h.79l.63,1.33.58-1.33h.79v1.96h-.48v-1.54s-.7,1.54-.7,1.54h-.43l-.7-1.54v1.54h-.98l-.19-.44h-1.01l-.19.44h-.53l.87-1.96Zm4.77,0h1.95l.6.64.61-.64h.6l-.9.99.9.98h-.62l-.6-.65-.62.65h-1.92v-1.96Zm-4.42.33l-.33.78h.66l-.33-.78Zm4.9.07v.36h1.06v.4h-1.06v.39h1.19l.55-.58-.53-.57h-1.21Z" /><path
    class="cls-17"
    d="m123.23,50.6l.99-5.8h1.58l-.99,5.8h-1.58Zm7.29-5.68c-.31-.12-.8-.24-1.42-.24-1.56,0-2.66.79-2.67,1.91,0,.83.79,1.3,1.39,1.58.62.28.82.47.82.72,0,.39-.49.57-.95.57-.63,0-.97-.09-1.49-.3l-.2-.09-.22,1.3c.37.16,1.05.3,1.76.31,1.66,0,2.74-.78,2.75-1.98,0-.66-.42-1.16-1.33-1.58-.55-.27-.89-.45-.89-.72,0-.24.29-.5.91-.5.52,0,.89.1,1.18.22l.14.07.21-1.26m4.07-.13h-1.22c-.38,0-.66.1-.83.48l-2.35,5.32h1.66s.27-.71.33-.87c.18,0,1.79,0,2.03,0,.05.2.19.87.19.87h1.47l-1.28-5.8h0Zm-1.94,3.75c.13-.33.63-1.62.63-1.62,0,.02.13-.34.21-.55l.11.5s.3,1.38.37,1.68h-1.31s0,0,0,0Zm-10.77-3.75l-1.55,3.96-.16-.8c-.29-.93-1.19-1.93-2.19-2.43l1.42,5.07h1.67s2.49-5.79,2.49-5.79h-1.67" /><path
    class="cls-11"
    d="m118.9,44.8h-2.55l-.02.12c1.98.48,3.3,1.64,3.84,3.04l-.55-2.67c-.1-.37-.37-.48-.72-.49" /></svg>