<svg width="360" height="49" viewBox="0 0 360 49" fill="none" xmlns="http://www.w3.org/2000/svg">
<rect y="0.333374" width="360" height="48" fill="#F0E4B6"/>
<path d="M29.25 31.0834C34.5856 31.079 39.898 31.7856 45.047 33.1844C45.774 33.3824 46.5 32.8424 46.5 32.0884V31.0834M30.75 16.8334V17.5834C30.75 17.7823 30.671 17.9731 30.5303 18.1137C30.3897 18.2544 30.1989 18.3334 30 18.3334H29.25M29.25 18.3334V17.9584C29.25 17.3374 29.754 16.8334 30.375 16.8334H47.25M29.25 18.3334V27.3334M47.25 16.8334V17.5834C47.25 17.9974 47.586 18.3334 48 18.3334H48.75M47.25 16.8334H47.625C48.246 16.8334 48.75 17.3374 48.75 17.9584V27.7084C48.75 28.3294 48.246 28.8334 47.625 28.8334H47.25M29.25 27.3334V27.7084C29.25 28.0067 29.3685 28.2929 29.5795 28.5039C29.7905 28.7148 30.0766 28.8334 30.375 28.8334H30.75M29.25 27.3334H30C30.1989 27.3334 30.3897 27.4124 30.5303 27.553C30.671 27.6937 30.75 27.8845 30.75 28.0834V28.8334M47.25 28.8334V28.0834C47.25 27.8845 47.329 27.6937 47.4697 27.553C47.6103 27.4124 47.8011 27.3334 48 27.3334H48.75M47.25 28.8334H30.75M42 22.8334C42 23.629 41.6839 24.3921 41.1213 24.9547C40.5587 25.5173 39.7956 25.8334 39 25.8334C38.2044 25.8334 37.4413 25.5173 36.8787 24.9547C36.3161 24.3921 36 23.629 36 22.8334C36 22.0377 36.3161 21.2747 36.8787 20.7121C37.4413 20.1494 38.2044 19.8334 39 19.8334C39.7956 19.8334 40.5587 20.1494 41.1213 20.7121C41.6839 21.2747 42 22.0377 42 22.8334ZM45 22.8334H45.008V22.8414H45V22.8334ZM33 22.8334H33.008V22.8414H33V22.8334Z" stroke="#242F66" stroke-width="1.5" stroke-linecap="round" stroke-linejoin="round"/>
<path d="M67.331 15.5507H65.7372C65.6918 15.2893 65.608 15.0578 65.4858 14.8561C65.3636 14.6516 65.2116 14.4783 65.0298 14.3362C64.848 14.1942 64.6406 14.0876 64.4077 14.0166C64.1776 13.9427 63.929 13.9058 63.6619 13.9058C63.1875 13.9058 62.767 14.0251 62.4006 14.2638C62.0341 14.4996 61.7472 14.8462 61.5398 15.3035C61.3324 15.7581 61.2287 16.3135 61.2287 16.9697C61.2287 17.6374 61.3324 18.1999 61.5398 18.6572C61.75 19.1118 62.0369 19.4555 62.4006 19.6885C62.767 19.9186 63.1861 20.0337 63.6577 20.0337C63.919 20.0337 64.1634 19.9996 64.3906 19.9314C64.6207 19.8604 64.8267 19.7567 65.0085 19.6203C65.1932 19.4839 65.348 19.3163 65.473 19.1175C65.6009 18.9186 65.6889 18.6913 65.7372 18.4356L67.331 18.4442C67.2713 18.8589 67.142 19.2481 66.9432 19.6118C66.7472 19.9754 66.4901 20.2964 66.1719 20.5749C65.8537 20.8504 65.4815 21.0663 65.0554 21.2226C64.6293 21.376 64.1563 21.4527 63.6364 21.4527C62.8693 21.4527 62.1847 21.2751 61.5824 20.92C60.9801 20.5649 60.5057 20.0521 60.1591 19.3817C59.8125 18.7112 59.6392 17.9072 59.6392 16.9697C59.6392 16.0294 59.8139 15.2254 60.1634 14.5578C60.5128 13.8874 60.9886 13.3746 61.5909 13.0195C62.1932 12.6643 62.875 12.4868 63.6364 12.4868C64.1222 12.4868 64.5739 12.555 64.9915 12.6913C65.4091 12.8277 65.7813 13.028 66.108 13.2922C66.4347 13.5535 66.7031 13.8746 66.9134 14.2552C67.1264 14.6331 67.2656 15.0649 67.331 15.5507ZM70.5941 21.4655C70.1793 21.4655 69.8058 21.3916 69.4734 21.2439C69.1438 21.0933 68.8825 20.8717 68.6893 20.5791C68.4989 20.2865 68.4038 19.9257 68.4038 19.4967C68.4038 19.1274 68.4719 18.822 68.6083 18.5805C68.7447 18.3391 68.9308 18.1459 69.1665 18.001C69.4023 17.8561 69.668 17.7467 69.9634 17.6729C70.2617 17.5962 70.57 17.5408 70.8881 17.5067C71.2717 17.4669 71.5827 17.4314 71.8214 17.4001C72.06 17.366 72.2333 17.3149 72.3413 17.2467C72.4521 17.1757 72.5075 17.0663 72.5075 16.9186V16.893C72.5075 16.572 72.4123 16.3234 72.2219 16.1473C72.0316 15.9712 71.7575 15.8831 71.3995 15.8831C71.0217 15.8831 70.7219 15.9655 70.5004 16.1302C70.2816 16.295 70.1339 16.4896 70.0572 16.7141L68.6168 16.5095C68.7305 16.1118 68.918 15.7794 69.1793 15.5124C69.4407 15.2425 69.7603 15.0408 70.1381 14.9072C70.516 14.7709 70.9336 14.7027 71.391 14.7027C71.7063 14.7027 72.0202 14.7396 72.3327 14.8135C72.6452 14.8874 72.9308 15.0095 73.1893 15.18C73.4478 15.3476 73.6552 15.5763 73.8114 15.866C73.9705 16.1558 74.0501 16.518 74.0501 16.9527V21.3334H72.5671V20.4342H72.516C72.4222 20.616 72.2901 20.7865 72.1197 20.9456C71.9521 21.1018 71.7404 21.2283 71.4847 21.3249C71.2319 21.4186 70.935 21.4655 70.5941 21.4655ZM70.9947 20.332C71.3043 20.332 71.5728 20.2709 71.8001 20.1487C72.0273 20.0237 72.2021 19.8589 72.3242 19.6544C72.4492 19.4499 72.5117 19.2268 72.5117 18.9854V18.2141C72.4634 18.2538 72.381 18.2908 72.2646 18.3249C72.1509 18.3589 72.0231 18.3888 71.881 18.4143C71.739 18.4399 71.5984 18.4626 71.4592 18.4825C71.32 18.5024 71.1992 18.5195 71.0969 18.5337C70.8668 18.5649 70.6609 18.616 70.479 18.6871C70.2972 18.7581 70.1538 18.8575 70.0487 18.9854C69.9435 19.1104 69.891 19.2723 69.891 19.4712C69.891 19.7552 69.9947 19.9697 70.2021 20.1146C70.4094 20.2595 70.6737 20.332 70.9947 20.332ZM80.7745 16.518L79.3683 16.6714C79.3285 16.5294 79.2589 16.3959 79.1594 16.2709C79.0629 16.1459 78.9322 16.045 78.7674 15.9683C78.6026 15.8916 78.4009 15.8533 78.1623 15.8533C77.8413 15.8533 77.5714 15.9229 77.3526 16.0621C77.1367 16.2013 77.0302 16.3817 77.033 16.6033C77.0302 16.7936 77.0998 16.9484 77.2418 17.0677C77.3867 17.1871 77.6254 17.2851 77.9577 17.3618L79.0742 17.6004C79.6935 17.7339 80.1538 17.9456 80.4549 18.2354C80.7589 18.5251 80.9123 18.9044 80.9151 19.3731C80.9123 19.7851 80.7915 20.1487 80.5529 20.4641C80.3171 20.7766 79.989 21.0209 79.5685 21.197C79.1481 21.3731 78.6651 21.4612 78.1197 21.4612C77.3185 21.4612 76.6737 21.2936 76.185 20.9584C75.6964 20.6203 75.4052 20.1501 75.3114 19.5479L76.8157 19.403C76.8839 19.6984 77.0288 19.9214 77.2504 20.072C77.4719 20.2226 77.7603 20.2979 78.1154 20.2979C78.4819 20.2979 78.7759 20.2226 78.9975 20.072C79.2219 19.9214 79.3342 19.7354 79.3342 19.5138C79.3342 19.3263 79.2617 19.1714 79.1168 19.0493C78.9748 18.9271 78.7532 18.8334 78.4521 18.768L77.3356 18.5337C76.7077 18.403 76.2433 18.1828 75.9421 17.8731C75.641 17.5606 75.4918 17.1658 75.4947 16.6885C75.4918 16.2851 75.6012 15.9356 75.8228 15.6402C76.0472 15.3419 76.3583 15.1118 76.756 14.9499C77.1566 14.7851 77.6183 14.7027 78.141 14.7027C78.908 14.7027 79.5117 14.866 79.9521 15.1927C80.3952 15.5195 80.6694 15.9612 80.7745 16.518ZM83.7298 17.4981V21.3334H82.1871V12.6061H83.6957V15.9001H83.7724C83.9258 15.5308 84.163 15.2396 84.484 15.0266C84.8079 14.8106 85.2198 14.7027 85.7198 14.7027C86.1744 14.7027 86.5707 14.7979 86.9087 14.9882C87.2468 15.1785 87.5082 15.457 87.6928 15.8234C87.8803 16.1899 87.9741 16.6374 87.9741 17.1658V21.3334H86.4315V17.4044C86.4315 16.9641 86.3178 16.6217 86.0906 16.3774C85.8661 16.1302 85.5508 16.0067 85.1445 16.0067C84.8718 16.0067 84.6275 16.0663 84.4116 16.1856C84.1985 16.3021 84.0309 16.4712 83.9087 16.6927C83.7894 16.9143 83.7298 17.1828 83.7298 17.4981ZM95.3782 21.4612C94.739 21.4612 94.185 21.3206 93.7163 21.0393C93.2475 20.7581 92.8839 20.3646 92.6254 19.8589C92.3697 19.3533 92.2418 18.7624 92.2418 18.0862C92.2418 17.4101 92.3697 16.8177 92.6254 16.3092C92.8839 15.8007 93.2475 15.4058 93.7163 15.1246C94.185 14.8433 94.739 14.7027 95.3782 14.7027C96.0174 14.7027 96.5714 14.8433 97.0401 15.1246C97.5089 15.4058 97.8711 15.8007 98.1268 16.3092C98.3853 16.8177 98.5146 17.4101 98.5146 18.0862C98.5146 18.7624 98.3853 19.3533 98.1268 19.8589C97.8711 20.3646 97.5089 20.7581 97.0401 21.0393C96.5714 21.3206 96.0174 21.4612 95.3782 21.4612ZM95.3867 20.2254C95.7333 20.2254 96.0231 20.1302 96.256 19.9399C96.489 19.7467 96.6623 19.4882 96.7759 19.1643C96.8924 18.8405 96.9506 18.4797 96.9506 18.082C96.9506 17.6814 96.8924 17.3192 96.7759 16.9953C96.6623 16.6686 96.489 16.4087 96.256 16.2155C96.0231 16.0223 95.7333 15.9257 95.3867 15.9257C95.0316 15.9257 94.7362 16.0223 94.5004 16.2155C94.2674 16.4087 94.0927 16.6686 93.9762 16.9953C93.8626 17.3192 93.8058 17.6814 93.8058 18.082C93.8058 18.4797 93.8626 18.8405 93.9762 19.1643C94.0927 19.4882 94.2674 19.7467 94.5004 19.9399C94.7362 20.1302 95.0316 20.2254 95.3867 20.2254ZM101.366 17.4981V21.3334H99.8239V14.7879H101.298V15.9001H101.375C101.526 15.5337 101.766 15.2425 102.095 15.0266C102.428 14.8106 102.838 14.7027 103.327 14.7027C103.778 14.7027 104.172 14.7993 104.507 14.9925C104.845 15.1856 105.107 15.4655 105.291 15.832C105.479 16.1984 105.571 16.643 105.568 17.1658V21.3334H104.026V17.4044C104.026 16.9669 103.912 16.6246 103.685 16.3774C103.46 16.1302 103.149 16.0067 102.751 16.0067C102.482 16.0067 102.241 16.0663 102.031 16.1856C101.824 16.3021 101.661 16.4712 101.541 16.6927C101.425 16.9143 101.366 17.1828 101.366 17.4981ZM62.8182 35.3334H59.8608V26.6061H62.8778C63.7443 26.6061 64.4886 26.7808 65.1108 27.1302C65.7358 27.4768 66.2159 27.9754 66.5511 28.626C66.8864 29.2766 67.054 30.055 67.054 30.9612C67.054 31.8703 66.8849 32.6516 66.5469 33.305C66.2116 33.9584 65.7273 34.4598 65.0938 34.8092C64.4631 35.1587 63.7045 35.3334 62.8182 35.3334ZM61.4418 33.9655H62.7415C63.3494 33.9655 63.8565 33.8547 64.2628 33.6331C64.669 33.4087 64.9744 33.0749 65.179 32.6317C65.3835 32.1856 65.4858 31.6288 65.4858 30.9612C65.4858 30.2936 65.3835 29.7396 65.179 29.2993C64.9744 28.8561 64.6719 28.5251 64.2713 28.3064C63.8736 28.0848 63.3793 27.974 62.7884 27.974H61.4418V33.9655ZM71.3857 35.4612C70.7294 35.4612 70.1626 35.3249 69.6854 35.0521C69.2109 34.7766 68.8459 34.3874 68.5902 33.8845C68.3345 33.3788 68.2067 32.7837 68.2067 32.099C68.2067 31.4257 68.3345 30.8348 68.5902 30.3263C68.8487 29.8149 69.2095 29.4172 69.6726 29.1331C70.1357 28.8462 70.6797 28.7027 71.3047 28.7027C71.7081 28.7027 72.0888 28.768 72.4467 28.8987C72.8075 29.0266 73.1257 29.2254 73.4013 29.4953C73.6797 29.7652 73.8984 30.1089 74.0575 30.5266C74.2166 30.9413 74.2962 31.4356 74.2962 32.0095V32.4825H68.9311V31.4427H72.8175C72.8146 31.1473 72.7507 30.8845 72.6257 30.6544C72.5007 30.4214 72.326 30.2382 72.1016 30.1047C71.88 29.9712 71.6214 29.9044 71.326 29.9044C71.0107 29.9044 70.7337 29.9811 70.495 30.1345C70.2564 30.2851 70.0703 30.4839 69.9368 30.7311C69.8061 30.9754 69.7393 31.2439 69.7365 31.5365V32.4442C69.7365 32.8249 69.8061 33.1516 69.9453 33.4243C70.0845 33.6942 70.2791 33.9016 70.5291 34.0464C70.7791 34.1885 71.0717 34.2595 71.407 34.2595C71.6314 34.2595 71.8345 34.2283 72.0163 34.1658C72.1982 34.1004 72.3558 34.0052 72.4893 33.8802C72.6229 33.7552 72.7237 33.6004 72.7919 33.4158L74.2322 33.5777C74.1413 33.9584 73.968 34.2908 73.7124 34.5749C73.4595 34.8561 73.1357 35.0749 72.7408 35.2311C72.3459 35.3845 71.8942 35.4612 71.3857 35.4612ZM77.1438 26.6061V35.3334H75.6012V26.6061H77.1438ZM78.7301 35.3334V28.7879H80.2727V35.3334H78.7301ZM79.5057 27.8589C79.2614 27.8589 79.0511 27.778 78.875 27.616C78.6989 27.4513 78.6108 27.2538 78.6108 27.0237C78.6108 26.7908 78.6989 26.5933 78.875 26.4314C79.0511 26.2666 79.2614 26.1842 79.5057 26.1842C79.7528 26.1842 79.9631 26.2666 80.1364 26.4314C80.3125 26.5933 80.4006 26.7908 80.4006 27.0237C80.4006 27.2538 80.3125 27.4513 80.1364 27.616C79.9631 27.778 79.7528 27.8589 79.5057 27.8589ZM87.7056 28.7879L85.3746 35.3334H83.6701L81.3391 28.7879H82.984L84.4883 33.6501H84.5565L86.065 28.7879H87.7056ZM91.4482 35.4612C90.7919 35.4612 90.2251 35.3249 89.7479 35.0521C89.2734 34.7766 88.9084 34.3874 88.6527 33.8845C88.397 33.3788 88.2692 32.7837 88.2692 32.099C88.2692 31.4257 88.397 30.8348 88.6527 30.3263C88.9112 29.8149 89.272 29.4172 89.7351 29.1331C90.1982 28.8462 90.7422 28.7027 91.3672 28.7027C91.7706 28.7027 92.1513 28.768 92.5092 28.8987C92.87 29.0266 93.1882 29.2254 93.4638 29.4953C93.7422 29.7652 93.9609 30.1089 94.12 30.5266C94.2791 30.9413 94.3587 31.4356 94.3587 32.0095V32.4825H88.9936V31.4427H92.88C92.8771 31.1473 92.8132 30.8845 92.6882 30.6544C92.5632 30.4214 92.3885 30.2382 92.1641 30.1047C91.9425 29.9712 91.6839 29.9044 91.3885 29.9044C91.0732 29.9044 90.7962 29.9811 90.5575 30.1345C90.3189 30.2851 90.1328 30.4839 89.9993 30.7311C89.8686 30.9754 89.8018 31.2439 89.799 31.5365V32.4442C89.799 32.8249 89.8686 33.1516 90.0078 33.4243C90.147 33.6942 90.3416 33.9016 90.5916 34.0464C90.8416 34.1885 91.1342 34.2595 91.4695 34.2595C91.6939 34.2595 91.897 34.2283 92.0788 34.1658C92.2607 34.1004 92.4183 34.0052 92.5518 33.8802C92.6854 33.7552 92.7862 33.6004 92.8544 33.4158L94.2947 33.5777C94.2038 33.9584 94.0305 34.2908 93.7749 34.5749C93.522 34.8561 93.1982 35.0749 92.8033 35.2311C92.4084 35.3845 91.9567 35.4612 91.4482 35.4612ZM95.6637 35.3334V28.7879H97.1594V29.8788H97.2276C97.3469 29.501 97.5515 29.2098 97.8413 29.0052C98.1339 28.7979 98.4677 28.6942 98.8427 28.6942C98.9279 28.6942 99.0231 28.6984 99.1282 28.707C99.2362 28.7126 99.3256 28.7226 99.3967 28.7368V30.1558C99.3313 30.1331 99.2276 30.1132 99.0856 30.0962C98.9464 30.0763 98.8114 30.0663 98.6808 30.0663C98.3995 30.0663 98.1467 30.1274 97.9222 30.2496C97.7006 30.3689 97.5259 30.5351 97.3981 30.7481C97.2702 30.9612 97.2063 31.207 97.2063 31.4854V35.3334H95.6637ZM101.58 37.7879C101.369 37.7879 101.175 37.7709 100.996 37.7368C100.82 37.7055 100.679 37.6686 100.574 37.626L100.932 36.4243C101.156 36.4896 101.357 36.5209 101.533 36.518C101.709 36.5152 101.864 36.4598 101.997 36.3518C102.134 36.2467 102.249 36.0706 102.342 35.8234L102.474 35.4697L100.101 28.7879H101.737L103.246 33.7311H103.314L104.827 28.7879H106.467L103.847 36.126C103.724 36.4726 103.563 36.7695 103.361 37.0166C103.159 37.2666 102.912 37.457 102.619 37.5876C102.33 37.7212 101.983 37.7879 101.58 37.7879Z" fill="#242F66"/>
<path d="M149.25 31.0834C149.25 31.4812 149.092 31.8627 148.811 32.144C148.529 32.4253 148.148 32.5834 147.75 32.5834C147.352 32.5834 146.971 32.4253 146.689 32.144C146.408 31.8627 146.25 31.4812 146.25 31.0834M149.25 31.0834C149.25 30.6855 149.092 30.304 148.811 30.0227C148.529 29.7414 148.148 29.5834 147.75 29.5834C147.352 29.5834 146.971 29.7414 146.689 30.0227C146.408 30.304 146.25 30.6855 146.25 31.0834M149.25 31.0834H155.25M146.25 31.0834H144.375C144.077 31.0834 143.791 30.9648 143.58 30.7539C143.369 30.5429 143.25 30.2567 143.25 29.9584V26.5834M155.25 31.0834H157.5M155.25 31.0834V26.5834M143.25 26.5834V18.9484C143.248 18.6745 143.348 18.4099 143.531 18.2055C143.713 18.0012 143.965 17.8718 144.237 17.8424C147.57 17.4964 150.93 17.4964 154.263 17.8424C154.828 17.9004 155.25 18.3804 155.25 18.9484V19.9064M143.25 26.5834H155.25M160.5 31.0834C160.5 31.4812 160.342 31.8627 160.061 32.144C159.779 32.4253 159.398 32.5834 159 32.5834C158.602 32.5834 158.221 32.4253 157.939 32.144C157.658 31.8627 157.5 31.4812 157.5 31.0834M160.5 31.0834C160.5 30.6855 160.342 30.304 160.061 30.0227C159.779 29.7414 159.398 29.5834 159 29.5834C158.602 29.5834 158.221 29.7414 157.939 30.0227C157.658 30.304 157.5 30.6855 157.5 31.0834M160.5 31.0834H161.625C162.246 31.0834 162.754 30.5794 162.715 29.9594C162.514 26.657 161.402 23.4749 159.502 20.7664C159.321 20.5126 159.085 20.3034 158.811 20.1544C158.537 20.0054 158.233 19.9206 157.922 19.9064H155.25M155.25 19.9064V26.5834" stroke="#242F66" stroke-width="1.5" stroke-linecap="round" stroke-linejoin="round"/>
<path d="M173.861 21.3334V12.6061H179.452V13.9314H175.442V16.3007H179.068V17.626H175.442V21.3334H173.861ZM180.73 21.3334V14.7879H182.226V15.8788H182.294C182.413 15.501 182.618 15.2098 182.908 15.0052C183.2 14.7979 183.534 14.6942 183.909 14.6942C183.994 14.6942 184.089 14.6984 184.195 14.707C184.303 14.7126 184.392 14.7226 184.463 14.7368V16.1558C184.398 16.1331 184.294 16.1132 184.152 16.0962C184.013 16.0763 183.878 16.0663 183.747 16.0663C183.466 16.0663 183.213 16.1274 182.989 16.2496C182.767 16.3689 182.592 16.5351 182.464 16.7481C182.337 16.9612 182.273 17.207 182.273 17.4854V21.3334H180.73ZM188.116 21.4612C187.46 21.4612 186.893 21.3249 186.416 21.0521C185.941 20.7766 185.576 20.3874 185.321 19.8845C185.065 19.3788 184.937 18.7837 184.937 18.099C184.937 17.4257 185.065 16.8348 185.321 16.3263C185.579 15.8149 185.94 15.4172 186.403 15.1331C186.866 14.8462 187.41 14.7027 188.035 14.7027C188.439 14.7027 188.819 14.768 189.177 14.8987C189.538 15.0266 189.856 15.2254 190.132 15.4953C190.41 15.7652 190.629 16.1089 190.788 16.5266C190.947 16.9413 191.027 17.4356 191.027 18.0095V18.4825H185.662V17.4427H189.548C189.545 17.1473 189.481 16.8845 189.356 16.6544C189.231 16.4214 189.056 16.2382 188.832 16.1047C188.61 15.9712 188.352 15.9044 188.056 15.9044C187.741 15.9044 187.464 15.9811 187.225 16.1345C186.987 16.2851 186.801 16.4839 186.667 16.7311C186.537 16.9754 186.47 17.2439 186.467 17.5365V18.4442C186.467 18.8249 186.537 19.1516 186.676 19.4243C186.815 19.6942 187.01 19.9016 187.26 20.0464C187.51 20.1885 187.802 20.2595 188.137 20.2595C188.362 20.2595 188.565 20.2283 188.747 20.1658C188.929 20.1004 189.086 20.0052 189.22 19.8802C189.353 19.7552 189.454 19.6004 189.522 19.4158L190.963 19.5777C190.872 19.9584 190.699 20.2908 190.443 20.5749C190.19 20.8561 189.866 21.0749 189.471 21.2311C189.076 21.3845 188.625 21.4612 188.116 21.4612ZM195.229 21.4612C194.573 21.4612 194.006 21.3249 193.529 21.0521C193.055 20.7766 192.69 20.3874 192.434 19.8845C192.178 19.3788 192.05 18.7837 192.05 18.099C192.05 17.4257 192.178 16.8348 192.434 16.3263C192.692 15.8149 193.053 15.4172 193.516 15.1331C193.979 14.8462 194.523 14.7027 195.148 14.7027C195.552 14.7027 195.933 14.768 196.29 14.8987C196.651 15.0266 196.969 15.2254 197.245 15.4953C197.523 15.7652 197.742 16.1089 197.901 16.5266C198.06 16.9413 198.14 17.4356 198.14 18.0095V18.4825H192.775V17.4427H196.661C196.658 17.1473 196.594 16.8845 196.469 16.6544C196.344 16.4214 196.17 16.2382 195.945 16.1047C195.724 15.9712 195.465 15.9044 195.17 15.9044C194.854 15.9044 194.577 15.9811 194.339 16.1345C194.1 16.2851 193.914 16.4839 193.781 16.7311C193.65 16.9754 193.583 17.2439 193.58 17.5365V18.4442C193.58 18.8249 193.65 19.1516 193.789 19.4243C193.928 19.6942 194.123 19.9016 194.373 20.0464C194.623 20.1885 194.915 20.2595 195.251 20.2595C195.475 20.2595 195.678 20.2283 195.86 20.1658C196.042 20.1004 196.2 20.0052 196.333 19.8802C196.467 19.7552 196.567 19.6004 196.636 19.4158L198.076 19.5777C197.985 19.9584 197.812 20.2908 197.556 20.5749C197.303 20.8561 196.979 21.0749 196.585 21.2311C196.19 21.3845 195.738 21.4612 195.229 21.4612ZM178.604 29.0052C178.564 28.6331 178.396 28.3433 178.101 28.1359C177.808 27.9285 177.428 27.8249 176.959 27.8249C176.629 27.8249 176.347 27.8746 176.111 27.974C175.875 28.0734 175.695 28.2084 175.57 28.3788C175.445 28.5493 175.381 28.7439 175.378 28.9626C175.378 29.1445 175.419 29.3021 175.501 29.4356C175.587 29.5692 175.702 29.6828 175.847 29.7766C175.991 29.8675 176.152 29.9442 176.328 30.0067C176.504 30.0692 176.682 30.1217 176.861 30.1643L177.679 30.3689C178.009 30.4456 178.325 30.5493 178.629 30.68C178.936 30.8106 179.21 30.9754 179.452 31.1743C179.696 31.3731 179.889 31.6132 180.031 31.8945C180.173 32.1757 180.244 32.5052 180.244 32.8831C180.244 33.3945 180.114 33.8447 179.852 34.2339C179.591 34.6203 179.213 34.9229 178.719 35.1416C178.227 35.3575 177.632 35.4655 176.933 35.4655C176.254 35.4655 175.665 35.3604 175.165 35.1501C174.668 34.9399 174.278 34.6331 173.997 34.2297C173.719 33.8263 173.568 33.3348 173.545 32.7552H175.101C175.124 33.0592 175.217 33.3121 175.382 33.5138C175.547 33.7155 175.761 33.866 176.026 33.9655C176.293 34.0649 176.591 34.1146 176.92 34.1146C177.264 34.1146 177.565 34.0635 177.824 33.9612C178.085 33.8561 178.29 33.7112 178.438 33.5266C178.585 33.3391 178.661 33.1203 178.663 32.8703C178.661 32.643 178.594 32.4555 178.463 32.3078C178.332 32.1572 178.149 32.0322 177.913 31.9328C177.68 31.8305 177.408 31.7396 177.095 31.6601L176.102 31.4044C175.384 31.2197 174.815 30.9399 174.398 30.5649C173.983 30.1871 173.776 29.6856 173.776 29.0606C173.776 28.5464 173.915 28.0962 174.193 27.7098C174.474 27.3234 174.857 27.0237 175.339 26.8106C175.822 26.5947 176.369 26.4868 176.98 26.4868C177.599 26.4868 178.142 26.5947 178.608 26.8106C179.077 27.0237 179.445 27.3206 179.712 27.7013C179.979 28.0791 180.116 28.5138 180.125 29.0052H178.604ZM183.128 31.4981V35.3334H181.586V26.6061H183.094V29.9001H183.171C183.324 29.5308 183.561 29.2396 183.882 29.0266C184.206 28.8106 184.618 28.7027 185.118 28.7027C185.573 28.7027 185.969 28.7979 186.307 28.9882C186.645 29.1785 186.907 29.457 187.091 29.8234C187.279 30.1899 187.373 30.6374 187.373 31.1658V35.3334H185.83V31.4044C185.83 30.9641 185.716 30.6217 185.489 30.3774C185.265 30.1302 184.949 30.0067 184.543 30.0067C184.27 30.0067 184.026 30.0663 183.81 30.1856C183.597 30.3021 183.429 30.4712 183.307 30.6927C183.188 30.9143 183.128 31.1828 183.128 31.4981ZM188.945 35.3334V28.7879H190.488V35.3334H188.945ZM189.721 27.8589C189.476 27.8589 189.266 27.778 189.09 27.616C188.914 27.4513 188.826 27.2538 188.826 27.0237C188.826 26.7908 188.914 26.5933 189.09 26.4314C189.266 26.2666 189.476 26.1842 189.721 26.1842C189.968 26.1842 190.178 26.2666 190.351 26.4314C190.527 26.5933 190.615 26.7908 190.615 27.0237C190.615 27.2538 190.527 27.4513 190.351 27.616C190.178 27.778 189.968 27.8589 189.721 27.8589ZM192.074 37.7879V28.7879H193.591V29.8703H193.68C193.76 29.7112 193.872 29.5422 194.017 29.3632C194.162 29.1814 194.358 29.0266 194.605 28.8987C194.852 28.768 195.168 28.7027 195.551 28.7027C196.057 28.7027 196.513 28.832 196.919 29.0905C197.328 29.3462 197.652 29.7254 197.891 30.2283C198.132 30.7283 198.253 31.3419 198.253 32.0692C198.253 32.7879 198.135 33.3987 197.899 33.9016C197.663 34.4044 197.342 34.7879 196.936 35.0521C196.53 35.3163 196.07 35.4484 195.555 35.4484C195.18 35.4484 194.869 35.3859 194.622 35.2609C194.375 35.1359 194.176 34.9854 194.026 34.8092C193.878 34.6302 193.763 34.4612 193.68 34.3021H193.616V37.7879H192.074ZM193.587 32.0606C193.587 32.4839 193.646 32.8547 193.766 33.1729C193.888 33.491 194.063 33.7396 194.29 33.9186C194.52 34.0947 194.798 34.1828 195.125 34.1828C195.466 34.1828 195.751 34.0919 195.982 33.9101C196.212 33.7254 196.385 33.474 196.501 33.1558C196.621 32.8348 196.68 32.4697 196.68 32.0606C196.68 31.6544 196.622 31.2936 196.506 30.9783C196.389 30.6629 196.216 30.4158 195.986 30.2368C195.756 30.0578 195.469 29.9683 195.125 29.9683C194.795 29.9683 194.516 30.055 194.286 30.2283C194.055 30.4016 193.881 30.6445 193.761 30.957C193.645 31.2695 193.587 31.6374 193.587 32.0606ZM199.574 37.7879V28.7879H201.091V29.8703H201.18C201.26 29.7112 201.372 29.5422 201.517 29.3632C201.662 29.1814 201.858 29.0266 202.105 28.8987C202.352 28.768 202.668 28.7027 203.051 28.7027C203.557 28.7027 204.013 28.832 204.419 29.0905C204.828 29.3462 205.152 29.7254 205.391 30.2283C205.632 30.7283 205.753 31.3419 205.753 32.0692C205.753 32.7879 205.635 33.3987 205.399 33.9016C205.163 34.4044 204.842 34.7879 204.436 35.0521C204.03 35.3163 203.57 35.4484 203.055 35.4484C202.68 35.4484 202.369 35.3859 202.122 35.2609C201.875 35.1359 201.676 34.9854 201.526 34.8092C201.378 34.6302 201.263 34.4612 201.18 34.3021H201.116V37.7879H199.574ZM201.087 32.0606C201.087 32.4839 201.146 32.8547 201.266 33.1729C201.388 33.491 201.563 33.7396 201.79 33.9186C202.02 34.0947 202.298 34.1828 202.625 34.1828C202.966 34.1828 203.251 34.0919 203.482 33.9101C203.712 33.7254 203.885 33.474 204.001 33.1558C204.121 32.8348 204.18 32.4697 204.18 32.0606C204.18 31.6544 204.122 31.2936 204.006 30.9783C203.889 30.6629 203.716 30.4158 203.486 30.2368C203.256 30.0578 202.969 29.9683 202.625 29.9683C202.295 29.9683 202.016 30.055 201.786 30.2283C201.555 30.4016 201.381 30.6445 201.261 30.957C201.145 31.2695 201.087 31.6374 201.087 32.0606ZM207.074 35.3334V28.7879H208.616V35.3334H207.074ZM207.849 27.8589C207.605 27.8589 207.395 27.778 207.219 27.616C207.043 27.4513 206.955 27.2538 206.955 27.0237C206.955 26.7908 207.043 26.5933 207.219 26.4314C207.395 26.2666 207.605 26.1842 207.849 26.1842C208.097 26.1842 208.307 26.2666 208.48 26.4314C208.656 26.5933 208.744 26.7908 208.744 27.0237C208.744 27.2538 208.656 27.4513 208.48 27.616C208.307 27.778 208.097 27.8589 207.849 27.8589ZM211.745 31.4981V35.3334H210.203V28.7879H211.677V29.9001H211.754C211.904 29.5337 212.145 29.2425 212.474 29.0266C212.806 28.8106 213.217 28.7027 213.706 28.7027C214.157 28.7027 214.551 28.7993 214.886 28.9925C215.224 29.1856 215.485 29.4655 215.67 29.832C215.858 30.1984 215.95 30.643 215.947 31.1658V35.3334H214.404V31.4044C214.404 30.9669 214.291 30.6246 214.064 30.3774C213.839 30.1302 213.528 30.0067 213.13 30.0067C212.86 30.0067 212.62 30.0663 212.41 30.1856C212.203 30.3021 212.039 30.4712 211.92 30.6927C211.804 30.9143 211.745 31.1828 211.745 31.4981ZM220.362 37.9243C219.808 37.9243 219.332 37.849 218.934 37.6984C218.537 37.5507 218.217 37.3518 217.975 37.1018C217.734 36.8518 217.566 36.5749 217.473 36.2709L218.862 35.9342C218.924 36.0621 219.015 36.1885 219.135 36.3135C219.254 36.4413 219.414 36.5464 219.616 36.6288C219.821 36.7141 220.078 36.7567 220.387 36.7567C220.825 36.7567 221.187 36.6501 221.474 36.4371C221.761 36.2268 221.904 35.8802 221.904 35.3973V34.1572H221.828C221.748 34.3163 221.632 34.4797 221.478 34.6473C221.328 34.8149 221.127 34.9555 220.877 35.0692C220.63 35.1828 220.319 35.2396 219.944 35.2396C219.441 35.2396 218.985 35.1217 218.576 34.8859C218.17 34.6473 217.846 34.2922 217.605 33.8206C217.366 33.3462 217.247 32.7524 217.247 32.0393C217.247 31.3206 217.366 30.7141 217.605 30.2197C217.846 29.7226 218.172 29.3462 218.581 29.0905C218.99 28.832 219.446 28.7027 219.949 28.7027C220.332 28.7027 220.647 28.768 220.895 28.8987C221.145 29.0266 221.343 29.1814 221.491 29.3632C221.639 29.5422 221.751 29.7112 221.828 29.8703H221.913V28.7879H223.434V35.4399C223.434 35.9996 223.301 36.4626 223.034 36.8291C222.767 37.1956 222.402 37.4697 221.939 37.6516C221.475 37.8334 220.95 37.9243 220.362 37.9243ZM220.375 34.0294C220.701 34.0294 220.98 33.9499 221.21 33.7908C221.44 33.6317 221.615 33.403 221.734 33.1047C221.853 32.8064 221.913 32.4484 221.913 32.0308C221.913 31.6189 221.853 31.2581 221.734 30.9484C221.618 30.6388 221.444 30.3987 221.214 30.2283C220.987 30.055 220.707 29.9683 220.375 29.9683C220.031 29.9683 219.744 30.0578 219.514 30.2368C219.284 30.4158 219.11 30.6615 218.994 30.974C218.877 31.2837 218.819 31.6359 218.819 32.0308C218.819 32.4314 218.877 32.7822 218.994 33.0834C219.113 33.3817 219.288 33.6146 219.518 33.7822C219.751 33.947 220.037 34.0294 220.375 34.0294Z" fill="#242F66"/>
<path d="M267.25 22.0834H272.125C272.821 22.0834 273.489 22.36 273.981 22.8523C274.473 23.3446 274.75 24.0122 274.75 24.7084C274.75 25.4046 274.473 26.0723 273.981 26.5646C273.489 27.0569 272.821 27.3334 272.125 27.3334H271M267.25 22.0834L269.5 19.8334M267.25 22.0834L269.5 24.3334M278.5 17.0904V34.0834L274.75 32.5834L271 34.0834L267.25 32.5834L263.5 34.0834V17.0904C263.5 15.9824 264.306 15.0334 265.407 14.9054C269.123 14.4741 272.877 14.4741 276.593 14.9054C277.693 15.0334 278.5 15.9824 278.5 17.0904Z" stroke="#242F66" stroke-width="1.5" stroke-linecap="round" stroke-linejoin="round"/>
<path d="M291.861 21.3334V12.6061H297.537V13.9314H293.442V16.3007H297.243V17.626H293.442V20.0081H297.571V21.3334H291.861ZM300.965 21.4655C300.55 21.4655 300.177 21.3916 299.844 21.2439C299.515 21.0933 299.254 20.8717 299.06 20.5791C298.87 20.2865 298.775 19.9257 298.775 19.4967C298.775 19.1274 298.843 18.822 298.979 18.5805C299.116 18.3391 299.302 18.1459 299.538 18.001C299.773 17.8561 300.039 17.7467 300.335 17.6729C300.633 17.5962 300.941 17.5408 301.259 17.5067C301.643 17.4669 301.954 17.4314 302.192 17.4001C302.431 17.366 302.604 17.3149 302.712 17.2467C302.823 17.1757 302.879 17.0663 302.879 16.9186V16.893C302.879 16.572 302.783 16.3234 302.593 16.1473C302.403 15.9712 302.129 15.8831 301.771 15.8831C301.393 15.8831 301.093 15.9655 300.871 16.1302C300.653 16.295 300.505 16.4896 300.428 16.7141L298.988 16.5095C299.102 16.1118 299.289 15.7794 299.55 15.5124C299.812 15.2425 300.131 15.0408 300.509 14.9072C300.887 14.7709 301.305 14.7027 301.762 14.7027C302.077 14.7027 302.391 14.7396 302.704 14.8135C303.016 14.8874 303.302 15.0095 303.56 15.18C303.819 15.3476 304.026 15.5763 304.183 15.866C304.342 16.1558 304.421 16.518 304.421 16.9527V21.3334H302.938V20.4342H302.887C302.793 20.616 302.661 20.7865 302.491 20.9456C302.323 21.1018 302.112 21.2283 301.856 21.3249C301.603 21.4186 301.306 21.4655 300.965 21.4655ZM301.366 20.332C301.675 20.332 301.944 20.2709 302.171 20.1487C302.398 20.0237 302.573 19.8589 302.695 19.6544C302.82 19.4499 302.883 19.2268 302.883 18.9854V18.2141C302.835 18.2538 302.752 18.2908 302.636 18.3249C302.522 18.3589 302.394 18.3888 302.252 18.4143C302.11 18.4399 301.969 18.4626 301.83 18.4825C301.691 18.5024 301.57 18.5195 301.468 18.5337C301.238 18.5649 301.032 18.616 300.85 18.6871C300.668 18.7581 300.525 18.8575 300.42 18.9854C300.315 19.1104 300.262 19.2723 300.262 19.4712C300.262 19.7552 300.366 19.9697 300.573 20.1146C300.781 20.2595 301.045 20.332 301.366 20.332ZM311.146 16.518L309.739 16.6714C309.7 16.5294 309.63 16.3959 309.531 16.2709C309.434 16.1459 309.303 16.045 309.138 15.9683C308.974 15.8916 308.772 15.8533 308.533 15.8533C308.212 15.8533 307.942 15.9229 307.724 16.0621C307.508 16.2013 307.401 16.3817 307.404 16.6033C307.401 16.7936 307.471 16.9484 307.613 17.0677C307.758 17.1871 307.996 17.2851 308.329 17.3618L309.445 17.6004C310.065 17.7339 310.525 17.9456 310.826 18.2354C311.13 18.5251 311.283 18.9044 311.286 19.3731C311.283 19.7851 311.163 20.1487 310.924 20.4641C310.688 20.7766 310.36 21.0209 309.94 21.197C309.519 21.3731 309.036 21.4612 308.491 21.4612C307.69 21.4612 307.045 21.2936 306.556 20.9584C306.067 20.6203 305.776 20.1501 305.683 19.5479L307.187 19.403C307.255 19.6984 307.4 19.9214 307.621 20.072C307.843 20.2226 308.131 20.2979 308.487 20.2979C308.853 20.2979 309.147 20.2226 309.369 20.072C309.593 19.9214 309.705 19.7354 309.705 19.5138C309.705 19.3263 309.633 19.1714 309.488 19.0493C309.346 18.9271 309.124 18.8334 308.823 18.768L307.707 18.5337C307.079 18.403 306.614 18.1828 306.313 17.8731C306.012 17.5606 305.863 17.1658 305.866 16.6885C305.863 16.2851 305.972 15.9356 306.194 15.6402C306.418 15.3419 306.729 15.1118 307.127 14.9499C307.528 14.7851 307.989 14.7027 308.512 14.7027C309.279 14.7027 309.883 14.866 310.323 15.1927C310.766 15.5195 311.04 15.9612 311.146 16.518ZM313.517 23.7879C313.307 23.7879 313.112 23.7709 312.933 23.7368C312.757 23.7055 312.616 23.6686 312.511 23.626L312.869 22.4243C313.094 22.4896 313.294 22.5209 313.47 22.518C313.646 22.5152 313.801 22.4598 313.935 22.3518C314.071 22.2467 314.186 22.0706 314.28 21.8234L314.412 21.4697L312.038 14.7879H313.675L315.183 19.7311H315.251L316.764 14.7879H318.405L315.784 22.126C315.662 22.4726 315.5 22.7695 315.298 23.0166C315.097 23.2666 314.849 23.457 314.557 23.5876C314.267 23.7212 313.92 23.7879 313.517 23.7879ZM291.861 35.3334V26.6061H295.134C295.804 26.6061 296.366 26.7226 296.821 26.9555C297.278 27.1885 297.624 27.5152 297.857 27.9356C298.092 28.3533 298.21 28.8405 298.21 29.3973C298.21 29.957 298.091 30.4427 297.852 30.8547C297.616 31.2638 297.268 31.5805 296.808 31.805C296.348 32.0266 295.783 32.1374 295.112 32.1374H292.781V30.8249H294.899C295.291 30.8249 295.612 30.7709 295.862 30.6629C296.112 30.5521 296.297 30.3916 296.416 30.1814C296.538 29.9683 296.599 29.707 296.599 29.3973C296.599 29.0876 296.538 28.8234 296.416 28.6047C296.294 28.3831 296.108 28.2155 295.858 28.1018C295.608 27.9854 295.286 27.9271 294.891 27.9271H293.442V35.3334H291.861ZM296.369 31.3788L298.53 35.3334H296.766L294.643 31.3788H296.369ZM302.401 35.4612C301.745 35.4612 301.178 35.3249 300.701 35.0521C300.227 34.7766 299.862 34.3874 299.606 33.8845C299.35 33.3788 299.222 32.7837 299.222 32.099C299.222 31.4257 299.35 30.8348 299.606 30.3263C299.864 29.8149 300.225 29.4172 300.688 29.1331C301.151 28.8462 301.695 28.7027 302.32 28.7027C302.724 28.7027 303.104 28.768 303.462 28.8987C303.823 29.0266 304.141 29.2254 304.417 29.4953C304.695 29.7652 304.914 30.1089 305.073 30.5266C305.232 30.9413 305.312 31.4356 305.312 32.0095V32.4825H299.947V31.4427H303.833C303.83 31.1473 303.766 30.8845 303.641 30.6544C303.516 30.4214 303.342 30.2382 303.117 30.1047C302.896 29.9712 302.637 29.9044 302.342 29.9044C302.026 29.9044 301.749 29.9811 301.511 30.1345C301.272 30.2851 301.086 30.4839 300.952 30.7311C300.822 30.9754 300.755 31.2439 300.752 31.5365V32.4442C300.752 32.8249 300.822 33.1516 300.961 33.4243C301.1 33.6942 301.295 33.9016 301.545 34.0464C301.795 34.1885 302.087 34.2595 302.423 34.2595C302.647 34.2595 302.85 34.2283 303.032 34.1658C303.214 34.1004 303.371 34.0052 303.505 33.8802C303.638 33.7552 303.739 33.6004 303.808 33.4158L305.248 33.5777C305.157 33.9584 304.984 34.2908 304.728 34.5749C304.475 34.8561 304.151 35.0749 303.756 35.2311C303.362 35.3845 302.91 35.4612 302.401 35.4612ZM309.885 28.7879V29.9811H306.123V28.7879H309.885ZM307.051 27.2197H308.594V33.3646C308.594 33.572 308.625 33.7311 308.688 33.8419C308.753 33.9499 308.838 34.0237 308.944 34.0635C309.049 34.1033 309.165 34.1231 309.293 34.1231C309.39 34.1231 309.478 34.116 309.557 34.1018C309.64 34.0876 309.702 34.0749 309.745 34.0635L310.005 35.2695C309.922 35.2979 309.804 35.3291 309.651 35.3632C309.5 35.3973 309.316 35.4172 309.097 35.4229C308.711 35.4342 308.363 35.376 308.053 35.2481C307.743 35.1175 307.498 34.9158 307.316 34.643C307.137 34.3703 307.049 34.0294 307.051 33.6203V27.2197ZM315.347 32.5805V28.7879H316.89V35.3334H315.394V34.17H315.326C315.178 34.5365 314.935 34.8362 314.597 35.0692C314.262 35.3021 313.849 35.4186 313.357 35.4186C312.928 35.4186 312.549 35.3234 312.219 35.1331C311.893 34.9399 311.637 34.6601 311.452 34.2936C311.268 33.9243 311.175 33.4783 311.175 32.9555V28.7879H312.718V32.7169C312.718 33.1317 312.832 33.4612 313.059 33.7055C313.286 33.9499 313.585 34.072 313.954 34.072C314.181 34.072 314.401 34.0166 314.614 33.9058C314.827 33.795 315.002 33.6302 315.138 33.4115C315.278 33.1899 315.347 32.9129 315.347 32.5805ZM318.476 35.3334V28.7879H319.972V29.8788H320.04C320.159 29.501 320.364 29.2098 320.654 29.0052C320.946 28.7979 321.28 28.6942 321.655 28.6942C321.74 28.6942 321.836 28.6984 321.941 28.707C322.049 28.7126 322.138 28.7226 322.209 28.7368V30.1558C322.144 30.1331 322.04 30.1132 321.898 30.0962C321.759 30.0763 321.624 30.0663 321.493 30.0663C321.212 30.0663 320.959 30.1274 320.735 30.2496C320.513 30.3689 320.338 30.5351 320.211 30.7481C320.083 30.9612 320.019 31.207 320.019 31.4854V35.3334H318.476ZM324.777 31.4981V35.3334H323.234V28.7879H324.708V29.9001H324.785C324.936 29.5337 325.176 29.2425 325.505 29.0266C325.838 28.8106 326.248 28.7027 326.737 28.7027C327.189 28.7027 327.582 28.7993 327.917 28.9925C328.255 29.1856 328.517 29.4655 328.701 29.832C328.889 30.1984 328.981 30.643 328.978 31.1658V35.3334H327.436V31.4044C327.436 30.9669 327.322 30.6246 327.095 30.3774C326.87 30.1302 326.559 30.0067 326.162 30.0067C325.892 30.0067 325.652 30.0663 325.441 30.1856C325.234 30.3021 325.071 30.4712 324.951 30.6927C324.835 30.9143 324.777 31.1828 324.777 31.4981ZM335.72 30.518L334.314 30.6714C334.274 30.5294 334.204 30.3959 334.105 30.2709C334.008 30.1459 333.877 30.045 333.713 29.9683C333.548 29.8916 333.346 29.8533 333.108 29.8533C332.787 29.8533 332.517 29.9229 332.298 30.0621C332.082 30.2013 331.975 30.3817 331.978 30.6033C331.975 30.7936 332.045 30.9484 332.187 31.0677C332.332 31.1871 332.571 31.2851 332.903 31.3618L334.02 31.6004C334.639 31.7339 335.099 31.9456 335.4 32.2354C335.704 32.5251 335.858 32.9044 335.86 33.3731C335.858 33.7851 335.737 34.1487 335.498 34.4641C335.262 34.7766 334.934 35.0209 334.514 35.197C334.093 35.3731 333.61 35.4612 333.065 35.4612C332.264 35.4612 331.619 35.2936 331.13 34.9584C330.642 34.6203 330.35 34.1501 330.257 33.5479L331.761 33.403C331.829 33.6984 331.974 33.9214 332.196 34.072C332.417 34.2226 332.706 34.2979 333.061 34.2979C333.427 34.2979 333.721 34.2226 333.943 34.072C334.167 33.9214 334.279 33.7354 334.279 33.5138C334.279 33.3263 334.207 33.1714 334.062 33.0493C333.92 32.9271 333.699 32.8334 333.397 32.768L332.281 32.5337C331.653 32.403 331.189 32.1828 330.887 31.8731C330.586 31.5606 330.437 31.1658 330.44 30.6885C330.437 30.2851 330.547 29.9356 330.768 29.6402C330.993 29.3419 331.304 29.1118 331.701 28.9499C332.102 28.7851 332.564 28.7027 333.086 28.7027C333.853 28.7027 334.457 28.866 334.897 29.1927C335.341 29.5195 335.615 29.9612 335.72 30.518Z" fill="#242F66"/>
</svg>
